<?xml version="1.0" encoding="UTF-8" standalone="no"?>
<svg
   xmlns:dc="http://purl.org/dc/elements/1.1/"
   xmlns:cc="http://creativecommons.org/ns#"
   xmlns:rdf="http://www.w3.org/1999/02/22-rdf-syntax-ns#"
   xmlns:svg="http://www.w3.org/2000/svg"
   xmlns="http://www.w3.org/2000/svg"
   version="1.1"
   id="svg140"
   width="32"
   height="26.504669"
   viewBox="0 0 32 26.50467">
  <metadata
     id="metadata146">
    <rdf:RDF>
      <cc:Work
         rdf:about="">
        <dc:format>image/svg+xml</dc:format>
        <dc:type
           rdf:resource="http://purl.org/dc/dcmitype/StillImage" />
        <dc:title></dc:title>
      </cc:Work>
    </rdf:RDF>
  </metadata>
  <defs
     id="defs144" />
  <path
     style="fill:#bf3d4a;fill-opacity:1;stroke:#1ceaea;stroke-width:0.96910095;stroke-opacity:1"
     d="m 1.0592307,24.300414 c -0.7662403,-1.990545 -0.7662403,-20.1056148 0,-22.0961586 0.8826448,-2.2929399 28.9988943,-2.2929399 29.8815393,0 0.76624,1.9905438 0.76624,20.1056136 0,22.0961586 -0.882645,2.29294 -28.9988945,2.29294 -29.8815393,0 z M 29.383818,14.945606 29.664262,6.4792474 H 16.037788 2.4113156 v 8.0631986 c 0,4.434761 0.3032726,8.365524 0.6739392,8.73503 0.3706663,0.369507 6.3763796,0.550929 13.3460292,0.403161 l 12.67209,-0.268671 z M 8.0809068,15.834846 10.206401,13.579438 8.2441488,11.809179 C 5.6227097,9.4442296 6.5792174,8.7118788 9.6606766,10.724614 c 2.9094304,1.900367 3.1076154,3.575861 0.6818294,5.764301 -2.8161462,2.540604 -4.74622,1.982415 -2.2615992,-0.654069 z m 6.9484722,1.287824 c 0,-0.532171 1.747117,-0.967584 3.882482,-0.967584 2.135364,0 3.882481,0.435413 3.882481,0.967584 0,0.532172 -1.747117,0.967584 -3.882481,0.967584 -2.135365,0 -3.882482,-0.435412 -3.882482,-0.967584 z"
     id="path152" />
</svg>
