<?xml version="1.0" encoding="UTF-8" standalone="no"?>
<svg
   xmlns:dc="http://purl.org/dc/elements/1.1/"
   xmlns:cc="http://creativecommons.org/ns#"
   xmlns:rdf="http://www.w3.org/1999/02/22-rdf-syntax-ns#"
   xmlns:svg="http://www.w3.org/2000/svg"
   xmlns="http://www.w3.org/2000/svg"
   height="32.000008"
   width="32"
   id="svg4"
   version="1.1"
   viewBox="0 0 32 32.000008">
  <metadata
     id="metadata10">
    <rdf:RDF>
      <cc:Work
         rdf:about="">
        <dc:format>image/svg+xml</dc:format>
        <dc:type
           rdf:resource="http://purl.org/dc/dcmitype/StillImage" />
        <dc:title></dc:title>
      </cc:Work>
    </rdf:RDF>
  </metadata>
  <defs
     id="defs8" />
  <!-- Font Awesome Free 5.15.1 by @fontawesome - https://fontawesome.com License - https://fontawesome.com/license/free (Icons: CC BY 4.0, Fonts: SIL OFL 1.1, Code: MIT License) -->
  <path
     style="fill:#bf3d4a;fill-opacity:1;stroke:#1ceaea;stroke-width:1.18773246;stroke-miterlimit:4;stroke-dasharray:none;stroke-opacity:1"
     id="path2"
     d="m 20.697495,19.846724 c 0,2.916846 -2.731837,2.849442 -3.020703,2.849442 H 12.11339 V 17.07774 h 5.563402 c 2.927166,0 3.020703,2.194003 3.020703,2.768984 z m -3.449186,-5.02969 c 0.04608,0 2.643804,0.06877 2.643804,-2.497303 0,-1.067427 -0.241409,-2.4670507 -2.643804,-2.4670507 H 12.11339 V 14.817034 Z M 31.406134,5.7294789 V 26.270528 a 5.1507381,5.1507381 0 0 1 -5.135608,5.135613 H 5.7294734 A 5.1507381,5.1507381 0 0 1 0.59386623,26.270528 V 5.7294789 A 5.1507381,5.1507381 0 0 1 5.7294734,0.59386623 H 26.270526 A 5.1507381,5.1507381 0 0 1 31.406134,5.7294789 Z M 23.844061,20.254568 c 0,-1.483525 -0.45737,-4.009025 -3.373531,-4.632157 v -0.05024 c 1.57569,-0.672636 2.568147,-1.942964 2.568147,-3.826767 0,-0.481447 0.137555,-4.455398 -5.337124,-4.455398 H 8.9668247 v 17.973586 c 8.8193243,0 9.6198923,0.115567 11.2519793,-0.392712 0.977327,-0.304 3.625257,-1.236619 3.625257,-4.616348 z" />
  <path
     d="m 20.697495,19.846724 c 0,2.916846 -2.731837,2.849442 -3.020703,2.849442 H 12.11339 V 17.07774 h 5.563402 c 2.927166,0 3.020703,2.194003 3.020703,2.768984 z m -3.449186,-5.02969 c 0.04608,0 2.643804,0.06877 2.643804,-2.497303 0,-1.067427 -0.241409,-2.4670507 -2.643804,-2.4670507 H 12.11339 V 14.817034 Z M 31.406134,5.7294789 V 26.270528 a 5.1507381,5.1507381 0 0 1 -5.135608,5.135613 H 5.7294734 A 5.1507381,5.1507381 0 0 1 0.59386623,26.270528 V 5.7294789 A 5.1507381,5.1507381 0 0 1 5.7294734,0.59386623 H 26.270526 A 5.1507381,5.1507381 0 0 1 31.406134,5.7294789 Z M 23.844061,20.254568 c 0,-1.483525 -0.45737,-4.009025 -3.373531,-4.632157 v -0.05024 c 1.57569,-0.672636 2.568147,-1.942964 2.568147,-3.826767 0,-0.481447 0.137555,-4.455398 -5.337124,-4.455398 H 8.9668247 v 17.973586 c 8.8193243,0 9.6198923,0.115567 11.2519793,-0.392712 0.977327,-0.304 3.625257,-1.236619 3.625257,-4.616348 z"
     id="path2280"
     style="fill:#bf3d4a;fill-opacity:1;stroke:#1ceaea;stroke-width:1.18773246;stroke-miterlimit:4;stroke-dasharray:none;stroke-opacity:1" />
</svg>
