<?xml version="1.0" encoding="UTF-8" standalone="no"?>
<svg
   xmlns:osb="http://www.openswatchbook.org/uri/2009/osb"
   xmlns:dc="http://purl.org/dc/elements/1.1/"
   xmlns:cc="http://creativecommons.org/ns#"
   xmlns:rdf="http://www.w3.org/1999/02/22-rdf-syntax-ns#"
   xmlns:svg="http://www.w3.org/2000/svg"
   xmlns="http://www.w3.org/2000/svg"
   viewBox="0 0 31.722624 26.309639"
   width="31.722624"
   height="26.309639"
   version="1.1"
   id="svg5">
  <metadata
     id="metadata11">
    <rdf:RDF>
      <cc:Work
         rdf:about="">
        <dc:format>image/svg+xml</dc:format>
        <dc:type
           rdf:resource="http://purl.org/dc/dcmitype/StillImage" />
        <dc:title></dc:title>
      </cc:Work>
    </rdf:RDF>
  </metadata>
  <defs
     id="defs9">
    <linearGradient
       id="linearGradient836"
       osb:paint="solid">
      <stop
         style="stop-color:#1ceaea;stop-opacity:1;"
         offset="0"
         id="stop834" />
    </linearGradient>
  </defs>
  <g
     id="surface5712319"
     style="fill:#bf3d4a;fill-opacity:1;stroke:#1ceaea;stroke-opacity:1"
     transform="translate(-0.77751472,-3.3466532)">
    <path
       style="fill:#bf3d4a;fill-opacity:1;fill-rule:nonzero;stroke:#1ceaea;stroke-opacity:1"
       d="M 26.363281,3.851562 C 25.636719,3.765625 25.234375,4.625 24.824219,5.675781 c -1.082031,2.777344 -4.261719,4.550781 -7.050781,5.132813 -0.617188,-0.359375 -1.328126,-0.570313 -2.09375,-0.570313 -1.007813,0 -1.933594,0.363281 -2.652344,0.960938 C 10.273438,10.980469 8.234375,7.996094 8.210938,7.960938 L 7.039062,6.214844 v 6.167968 C 6.78125,12.746094 6.601562,13.167969 6.5,13.617188 5.1875,12.699219 3.660156,12.511719 2.535156,13.261719 c -0.625,0.414062 -1.039062,1.066406 -1.191406,1.878906 -0.222656,1.183594 0.128906,2.535156 0.957031,3.71875 1.019531,1.445313 2.488281,2.269531 3.820313,2.269531 0.570312,0 1.113281,-0.152344 1.582031,-0.46875 0.628906,-0.414062 1.042969,-1.066406 1.195313,-1.882812 0.058593,-0.324219 0.074218,-0.660156 0.050781,-1 0.3125,0.08984 0.636719,0.144531 0.972656,0.144531 0.101563,0 0.207031,-0.01172 0.3125,-0.02344 0.01172,0.378906 -0.01172,0.75 -0.07813,1.113281 -0.21875,1.164062 -0.820312,2.101562 -1.742188,2.714843 -0.246093,0.164063 -0.515624,0.292969 -0.792968,0.394532 0.6875,0.433594 1.4375,0.855468 2.160156,1.167968 2.574219,1.128907 4.976562,1.6875 7.140625,1.6875 1.816406,0 3.460937,-0.40625 4.898437,-1.199218 0.335938,0.183594 0.667969,0.355468 1,0.503906 1.742188,0.796875 3.46875,1.375 4.75,1.605469 0.02344,0.144531 0.05469,0.292969 0.101563,0.445312 0.472656,1.53125 3.011719,2.304688 3.519531,2.445313 L 32,29 v -0.839844 c 0.0039,-1.050781 -0.07422,-3.582031 -0.789062,-4.351562 -0.636719,-0.691406 -1.488282,-0.929688 -2.253907,-0.660156 -0.90625,-0.757813 -2.269531,-1.601563 -3.859375,-2.367188 2.867188,-4.394531 2.511719,-12.960938 2.25,-14.957031 -0.136718,-1.007813 -0.25,-1.882813 -0.984375,-1.972657 z m -10.683593,7.667969 c 1.585937,0 2.878906,1.292969 2.878906,2.878907 0,0.179687 -0.01953,0.355468 -0.05078,0.527343 -0.199218,-0.851562 -0.957031,-1.484375 -1.867187,-1.484375 -0.05469,0 -0.105469,0.01172 -0.160156,0.01563 0.453125,0.07422 0.800781,0.46875 0.800781,0.941407 0,0.53125 -0.429688,0.960937 -0.960938,0.960937 -0.53125,0 -0.960937,-0.429687 -0.960937,-0.960937 0,-0.257813 0.105469,-0.492188 0.273437,-0.664063 -0.546874,0.335937 -0.914062,0.9375 -0.914062,1.625 0,0.910156 0.636719,1.671875 1.488281,1.867187 -0.171875,0.03125 -0.347656,0.05469 -0.527343,0.05469 -1.585938,0 -2.878907,-1.292969 -2.878907,-2.882812 0,-1.585938 1.292969,-2.878907 2.878907,-2.878907 z m -5.757813,0.640625 c 0.726563,0 1.402344,0.355469 1.816406,0.9375 -0.07422,0.230469 -0.128906,0.46875 -0.167969,0.710938 -0.273437,-0.226563 -0.625,-0.367188 -1.011718,-0.367188 -0.04297,0 -0.08594,0.0078 -0.132813,0.01172 0.378907,0.0625 0.667969,0.390625 0.667969,0.785156 0,0.445313 -0.359375,0.800781 -0.800781,0.800781 -0.441407,0 -0.800781,-0.355468 -0.800781,-0.800781 0,-0.214843 0.085937,-0.410156 0.226562,-0.554687 -0.453125,0.28125 -0.757812,0.78125 -0.757812,1.355468 0,0.78125 0.558593,1.429688 1.300781,1.570313 -0.113281,0.01953 -0.226563,0.03125 -0.339844,0.03125 -0.472656,0 -0.925781,-0.144531 -1.3125,-0.421875 L 8.550781,16.175781 C 8.390625,15.796875 8.191406,15.421875 7.941406,15.0625 7.871094,14.964844 7.796875,14.871094 7.722656,14.78125 7.699219,14.65625 7.679688,14.527344 7.679688,14.398438 c 0,-1.234376 1.003906,-2.238282 2.242187,-2.238282 z m -6.082031,1.917969 c 0.707031,0 1.28125,0.71875 1.28125,1.601563 0,0.886718 -0.574219,1.601562 -1.28125,1.601562 -0.707032,0 -1.28125,-0.714844 -1.28125,-1.601562 0,-0.882813 0.574218,-1.601563 1.28125,-1.601563 z m 16,3.84375 c 0,0 0.789062,0.359375 1.355468,0.9375 0.0039,0 0.0039,0.0039 0.0078,0.0078 0.05859,0.05469 0.109375,0.113281 0.15625,0.171874 0.253906,0.3125 0.429687,0.671876 0.390625,1.0625 l 0.0039,0.0039 c -0.0078,0.05469 -0.01563,0.113281 -0.02734,0.167969 -0.03516,0.140624 -0.105468,0.285156 -0.195312,0.4375 0.785156,0.257812 1.621094,0.582031 2.480469,0.96875 1.574219,0.71875 2.996093,1.550781 3.921875,2.277343 -0.125,0.183594 -0.222656,0.398438 -0.296875,0.632813 -1.15625,-0.226563 -2.695313,-0.746094 -4.285157,-1.46875 -0.949218,-0.4375 -1.949218,-1.050782 -2.792968,-1.617188 -0.257813,0.09766 -0.542969,0.164063 -0.847656,0.203125 -2.644532,0.347657 -6.910157,-1.226562 -6.910157,-1.226562 0,0 7.589844,0.417969 7.589844,-1.058594 0,-0.738281 -0.550781,-1.5 -0.550781,-1.5 z m 0,0"
       id="path2" />
  </g>
</svg>
