<?xml version="1.0" encoding="UTF-8" standalone="no"?>
<svg
   xmlns:dc="http://purl.org/dc/elements/1.1/"
   xmlns:cc="http://creativecommons.org/ns#"
   xmlns:rdf="http://www.w3.org/1999/02/22-rdf-syntax-ns#"
   xmlns:svg="http://www.w3.org/2000/svg"
   xmlns="http://www.w3.org/2000/svg"
   height="25.794922"
   width="32"
   id="svg4"
   version="1.1"
   viewBox="0 0 32 25.794922">
  <metadata
     id="metadata10">
    <rdf:RDF>
      <cc:Work
         rdf:about="">
        <dc:format>image/svg+xml</dc:format>
        <dc:type
           rdf:resource="http://purl.org/dc/dcmitype/StillImage" />
        <dc:title></dc:title>
      </cc:Work>
    </rdf:RDF>
  </metadata>
  <defs
     id="defs8" />
  <!-- Font Awesome Free 5.15.1 by @fontawesome - https://fontawesome.com License - https://fontawesome.com/license/free (Icons: CC BY 4.0, Fonts: SIL OFL 1.1, Code: MIT License) -->
  <path
     style="fill:#bf3d4a;fill-opacity:1;stroke:#1ceaea;stroke-width:0.969697;stroke-miterlimit:4;stroke-dasharray:none;stroke-opacity:1"
     id="path2"
     d="m 12.515556,17.596768 c 0,1.35111 -0.704647,3.56202 -2.372526,3.56202 -1.6678785,0 -2.372525,-2.21091 -2.372525,-3.56202 0,-1.35111 0.7046465,-3.56201 2.372525,-3.56201 1.667879,0 2.372526,2.2109 2.372526,3.56201 z m 18.999596,-3.26465 c 0,2.06223 -0.206869,4.24728 -1.131314,6.14142 -2.4501,4.95192 -9.186262,4.83555 -14.008888,4.83555 -4.900203,0 -12.0371723,0.17455 -14.5842429,-4.83555 -0.9438384,-1.87475 -1.3058586,-4.07919 -1.3058586,-6.14142 0,-2.70868 0.8985859,-5.2686795 2.6828283,-7.3438295 -0.3361616,-1.02141 -0.4977778,-2.09455 -0.4977778,-3.15475 0,-1.3899 0.3167677,-2.08808 0.9438384,-3.34869 2.9284849,0 4.8032323,0.58182 7.0335356,2.32727 1.874747,-0.44606 3.801212,-0.64646 5.734141,-0.64646 1.745454,0 3.503839,0.18748 5.197576,0.59475 2.19798,-1.72606 4.072727,-2.27556 6.968889,-2.27556 0.633535,1.26061 0.943838,1.95879 0.943838,3.34869 0,1.0602 -0.168081,2.11394 -0.497778,3.11596 1.777778,2.09455 2.521213,4.6739395 2.521213,7.3826195 z m -4.156768,3.26465 c 0,-2.83798 -1.726061,-5.3398 -4.751516,-5.3398 -1.221818,0 -2.391918,0.2198 -3.620201,0.38788 -0.963232,0.14869 -1.926465,0.20688 -2.915556,0.20688 -0.982626,0 -1.945858,-0.0582 -2.915555,-0.20688 -1.208889,-0.16808 -2.39192,-0.38788 -3.6202025,-0.38788 -3.0254545,0 -4.7515151,2.50182 -4.7515151,5.3398 0,5.67596 5.1975757,6.54869 9.7228286,6.54869 h 3.115959 c 4.544647,0 9.735758,-0.86626 9.735758,-6.54869 z m -5.339798,-3.56201 c -1.667879,0 -2.372525,2.2109 -2.372525,3.56201 0,1.35111 0.704646,3.56202 2.372525,3.56202 1.667879,0 2.372525,-2.21091 2.372525,-3.56202 0,-1.35111 -0.704646,-3.56201 -2.372525,-3.56201 z" />
</svg>
