<?xml version="1.0" encoding="UTF-8" standalone="no"?>
<svg
   xmlns:dc="http://purl.org/dc/elements/1.1/"
   xmlns:cc="http://creativecommons.org/ns#"
   xmlns:rdf="http://www.w3.org/1999/02/22-rdf-syntax-ns#"
   xmlns:svg="http://www.w3.org/2000/svg"
   xmlns="http://www.w3.org/2000/svg"
   viewBox="0 0 32 31.956381"
   width="32"
   height="31.956381"
   version="1.1"
   id="svg5">
  <metadata
     id="metadata11">
    <rdf:RDF>
      <cc:Work
         rdf:about="">
        <dc:format>image/svg+xml</dc:format>
        <dc:type
           rdf:resource="http://purl.org/dc/dcmitype/StillImage" />
        <dc:title></dc:title>
      </cc:Work>
    </rdf:RDF>
  </metadata>
  <defs
     id="defs9" />
  <g
     id="surface5713159"
     style="fill:#bf3d4a;fill-opacity:1;stroke:#1ceaea;stroke-opacity:1"
     transform="matrix(1.1567921,0,0,1.1567921,-2.5069956,-2.553076)">
    <path
       style="fill:#bf3d4a;fill-opacity:1;fill-rule:nonzero;stroke:#1ceaea;stroke-opacity:1"
       d="m 15.859375,2.707031 c -0.820313,0 -1.628906,0.300781 -2.214844,0.90625 l -9.804687,10.1875 C 0.125,17.570312 6.238281,17.25 8.457031,18.679688 c 1.019531,0.675781 -3.285156,1.542968 -2.40625,2.433593 0.855469,0.898438 5.167969,1.714844 6.023438,2.585938 0.855469,0.890625 -1.742188,1.835937 -0.878907,2.726562 0.832032,0.890625 2.824219,0.05078 3.1875,2.078125 0.101563,0.589844 0.6875,0.828125 1.453126,0.828125 1.1875,0 2.8125,-0.582031 3.738281,-1.359375 0.949219,-0.820312 -1.644531,-0.820312 -0.789063,-1.71875 0.765625,-0.785156 1.5,-1.132812 2.164063,-1.347656 1.195312,-0.394531 2.164062,-0.363281 2.667969,-1.667969 0.429687,-1.085937 -3.242188,-1.859375 -2.261719,-2.554687 2.332031,-1.667969 10.90625,-2.511719 6.949219,-6.519532 L 18.144531,3.613281 C 17.515625,3.007812 16.679688,2.707031 15.859375,2.707031 Z m 0,2.664063 c 0.07422,0 0.261719,0.015625 0.414063,0.148437 L 23,12.5 21.332031,13.332031 20,12 17.332031,13.332031 14.667969,10.667969 12,13.332031 H 8 l 7.566406,-7.867187 c 0.05469,-0.058594 0.167969,-0.09375 0.292969,-0.09375 z m -4.605469,13.390625 c 0.179688,0 4.371094,0.695312 5.882813,1.5 0.679687,0.367187 0.8125,0.753906 -0.234375,1.109375 -0.03125,0.01172 -0.07422,0.01172 -0.113282,0.01953 -0.05859,0.01172 -0.113281,0.02344 -0.183593,0.02734 -0.683594,0.0078 -1.90625,-0.414063 -3.03125,-0.921875 -0.0039,-0.0039 -0.0078,-0.0039 -0.0078,-0.0078 -0.171875,-0.07813 -0.34375,-0.160156 -0.507812,-0.238281 -0.03516,-0.01563 -0.07031,-0.03125 -0.101563,-0.05078 -0.128906,-0.0625 -0.257812,-0.128907 -0.378906,-0.191407 -0.05859,-0.03125 -0.117187,-0.05859 -0.171875,-0.08984 -0.08984,-0.05078 -0.179688,-0.101563 -0.265625,-0.148438 C 12.070312,19.726562 12,19.6875 11.933594,19.648438 c -0.0625,-0.03906 -0.117188,-0.07031 -0.175782,-0.105469 -0.07422,-0.04687 -0.144531,-0.09375 -0.207031,-0.136719 -0.04297,-0.02734 -0.07813,-0.05469 -0.113281,-0.08203 -0.0625,-0.04297 -0.125,-0.08984 -0.175781,-0.132813 -0.02344,-0.01953 -0.04687,-0.03906 -0.07031,-0.0625 -0.04297,-0.03906 -0.08594,-0.07422 -0.113281,-0.109375 -0.01563,-0.02344 -0.02344,-0.03906 -0.03516,-0.05859 -0.01563,-0.02734 -0.03125,-0.05859 -0.03516,-0.08203 -0.0039,-0.02344 0.01172,-0.03906 0.02734,-0.05469 0.0078,-0.01172 0.0078,-0.02344 0.02344,-0.03125 0.03906,-0.01953 0.101562,-0.03125 0.195312,-0.03125 z m 16.125,3.25 c -0.898437,0.03516 -1.8125,0.523437 -2.046875,1.429687 0,0.59375 4.222657,0.933594 3.992188,-0.140625 -0.171875,-0.90625 -1.050781,-1.324219 -1.945313,-1.289062 z M 9.371094,24.007812 C 7.777344,23.894531 5.742188,25.101562 7.128906,26.289062 8.308594,27.324219 10.09375,26.0625 10.667969,24.605469 10.378906,24.226562 9.898438,24.046875 9.371094,24.007812 Z M 24.3125,25.332031 c -0.820312,0.84375 0.144531,1.730469 0.949219,1.148438 0.210937,-0.160157 -0.01953,-0.945313 -0.949219,-1.148438 z m 0,0"
       id="path2" />
  </g>
</svg>
