<?xml version="1.0" encoding="UTF-8" standalone="no"?>
<svg
   xmlns:dc="http://purl.org/dc/elements/1.1/"
   xmlns:cc="http://creativecommons.org/ns#"
   xmlns:rdf="http://www.w3.org/1999/02/22-rdf-syntax-ns#"
   xmlns:svg="http://www.w3.org/2000/svg"
   xmlns="http://www.w3.org/2000/svg"
   height="31.999996"
   width="32"
   id="svg4"
   version="1.1"
   viewBox="0 0 32 31.999996">
  <metadata
     id="metadata10">
    <rdf:RDF>
      <cc:Work
         rdf:about="">
        <dc:format>image/svg+xml</dc:format>
        <dc:type
           rdf:resource="http://purl.org/dc/dcmitype/StillImage" />
        <dc:title></dc:title>
      </cc:Work>
    </rdf:RDF>
  </metadata>
  <defs
     id="defs8" />
  <!-- Font Awesome Free 5.15.1 by @fontawesome - https://fontawesome.com License - https://fontawesome.com/license/free (Icons: CC BY 4.0, Fonts: SIL OFL 1.1, Code: MIT License) -->
  <path
     style="fill:#bf3d4a;fill-opacity:0.94117647;stroke:#1ceaea;stroke-width:0.969697;stroke-miterlimit:4;stroke-dasharray:none;stroke-opacity:1"
     id="path2"
     d="M 28.190477,0.4848485 H 3.8095238 c -1.8354978,0 -3.3246753,1.48917 -3.3246753,3.32467 V 28.190478 c 0,1.8355 1.4891775,3.32467 3.3246753,3.32467 H 28.190477 c 1.835497,0 3.324675,-1.48917 3.324675,-3.32467 V 3.8095185 c 0,-1.8355 -1.489178,-3.32467 -3.324675,-3.32467 z M 17.371429,24.685708 c 0,3.01992 -1.773161,4.39828 -4.35671,4.39828 -2.334199,0 -3.6848488,-1.2052 -4.3774895,-2.66667 l 2.3757575,-1.43377 c 0.457142,0.81039 0.872727,1.4961 1.877056,1.4961 0.955844,0 1.565368,-0.37402 1.565368,-1.83549 v -9.91169 h 2.916018 z m 6.8987,4.39828 c -2.708225,0 -4.460606,-1.28831 -5.312553,-2.97836 l 2.375757,-1.37143 c 0.623377,1.01818 1.440693,1.77316 2.874459,1.77316 1.205195,0 1.980953,-0.60259 1.980953,-1.44069 0,-0.9974 -0.789611,-1.35066 -2.126407,-1.9394 l -0.727273,-0.31169 c -2.105628,-0.8935 -3.497835,-2.0225 -3.497835,-4.39826 0,-2.18875 1.669263,-3.85108 4.266666,-3.85108 1.856278,0 3.186147,0.64415 4.141991,2.33419 l -2.271861,1.45455 c -0.498701,-0.89351 -1.038961,-1.24675 -1.877056,-1.24675 -0.851948,0 -1.392208,0.54025 -1.392208,1.24675 0,0.87272 0.54026,1.22598 1.79394,1.77316 l 0.727272,0.31169 c 2.479654,1.05974 3.871862,2.14719 3.871862,4.58528 0,2.61818 -2.06407,4.05888 -4.827707,4.05888 z" />
</svg>
