<?xml version="1.0" encoding="UTF-8" standalone="no"?>
<svg
   xmlns:dc="http://purl.org/dc/elements/1.1/"
   xmlns:cc="http://creativecommons.org/ns#"
   xmlns:rdf="http://www.w3.org/1999/02/22-rdf-syntax-ns#"
   xmlns:svg="http://www.w3.org/2000/svg"
   xmlns="http://www.w3.org/2000/svg"
   height="32.006256"
   width="32"
   id="svg4"
   version="1.1"
   viewBox="0 0 32 32.006256">
  <metadata
     id="metadata10">
    <rdf:RDF>
      <cc:Work
         rdf:about="">
        <dc:format>image/svg+xml</dc:format>
        <dc:type
           rdf:resource="http://purl.org/dc/dcmitype/StillImage" />
        <dc:title></dc:title>
      </cc:Work>
    </rdf:RDF>
  </metadata>
  <defs
     id="defs8" />
  <!-- Font Awesome Free 5.15.1 by @fontawesome - https://fontawesome.com License - https://fontawesome.com/license/free (Icons: CC BY 4.0, Fonts: SIL OFL 1.1, Code: MIT License) -->
  <path
     style="fill:#bf3d4a;fill-opacity:1;stroke:#1ceaea;stroke-width:0.96996462;stroke-miterlimit:4;stroke-dasharray:none;stroke-opacity:1"
     id="path2"
     d="M 30.949231,12.159774 C 30.415768,10.018994 29.404266,8.4047441 27.249628,8.4047441 H 24.47146 v 3.2839199 c 0,2.54954 -2.161566,4.69725 -4.627969,4.69725 h -7.399207 c -2.023005,0 -3.699604,1.73203 -3.699604,3.76196 v 7.0528 c 0,2.00915 1.74588,3.18692 3.699604,3.76196 2.341696,0.68588 4.593329,0.81059 7.399207,0 1.863658,-0.54039 3.699604,-1.62811 3.699604,-3.76196 v -2.81974 h -7.392279 v -0.94221 h 11.098812 c 2.154638,0 2.951369,-1.50341 3.699603,-3.75504 0.775948,-2.32091 0.741307,-4.55176 0,-7.52391 z m -10.641557,14.09868 c 0.769019,0 1.392548,0.63045 1.392548,1.4064 0,0.78288 -0.623529,1.41334 -1.392548,1.41334 -0.762091,0 -1.392547,-0.63739 -1.392547,-1.41334 0.0069,-0.78287 0.630456,-1.4064 1.392547,-1.4064 z m -8.202867,-10.8009 h 7.399207 c 2.057646,0 3.699605,-1.69739 3.699605,-3.76196 V 4.6358641 c 0,-2.00915 -1.690456,-3.51255 -3.699605,-3.85201996 -2.480258,-0.40877 -5.175287,-0.38798 -7.399207,0.007 C 8.9733072,1.3450841 8.4052032,2.5020841 8.4052032,4.6428641 v 2.81973 h 7.4061358 v 0.94223 H 5.6270362 c -2.1546382,0 -4.0390807,1.29555 -4.62796888,3.7550299 -0.67895352,2.81973 -0.70666591,4.57946 0,7.52391 0.52653538,2.18928 1.78052098,3.75503 3.93515928,3.75503 h 2.5426115 v -3.38092 c 0,-2.44562 2.1130697,-4.60025 4.6279689,-4.60025 z M 11.640625,5.5780841 c -0.769019,0 -1.392548,-0.63046 -1.392548,-1.40641 0.0069,-0.78287 0.623529,-1.41333 1.392548,-1.41333 0.76209,0 1.392547,0.63739 1.392547,1.41333 0,0.77595 -0.623528,1.40641 -1.392547,1.40641 z" />
</svg>
