<?xml version="1.0" encoding="UTF-8" standalone="no"?>
<svg
   xmlns:dc="http://purl.org/dc/elements/1.1/"
   xmlns:cc="http://creativecommons.org/ns#"
   xmlns:rdf="http://www.w3.org/1999/02/22-rdf-syntax-ns#"
   xmlns:svg="http://www.w3.org/2000/svg"
   xmlns="http://www.w3.org/2000/svg"
   height="28.122364"
   width="32"
   id="svg4"
   version="1.1"
   viewBox="0 0 32 28.122364">
  <metadata
     id="metadata10">
    <rdf:RDF>
      <cc:Work
         rdf:about="">
        <dc:format>image/svg+xml</dc:format>
        <dc:type
           rdf:resource="http://purl.org/dc/dcmitype/StillImage" />
        <dc:title></dc:title>
      </cc:Work>
    </rdf:RDF>
  </metadata>
  <defs
     id="defs8" />
  <!-- Font Awesome Free 5.15.1 by @fontawesome - https://fontawesome.com License - https://fontawesome.com/license/free (Icons: CC BY 4.0, Fonts: SIL OFL 1.1, Code: MIT License) -->
  <path
     style="fill:#bf3d4a;fill-opacity:1;stroke:#1ceaea;stroke-width:0.969697;stroke-miterlimit:4;stroke-dasharray:none;stroke-opacity:1"
     id="path2"
     d="m 25.830303,9.2840299 c -0.327273,-0.10909 -0.654545,-0.21212 -0.981818,-0.30909 0.05455,-0.22425 0.10303,-0.44849 0.151515,-0.67273 0.745455,-3.61212 0.254545,-6.51515 -1.4,-7.47273004 -1.593939,-0.91515 -4.193939,0.0364 -6.824242,2.32728004 -0.260606,0.22424 -0.515152,0.4606 -0.757576,0.69696 -0.163637,-0.15757 -0.333334,-0.31515 -0.50303,-0.46666 C 12.757576,0.93856986 9.9939394,-0.09173014 8.3393939,0.87190986 6.7515152,1.7931199 6.2787879,4.5264499 6.9454545,7.9446299 c 0.066667,0.3394 0.139394,0.67273 0.2242425,1.01213 C 6.7818182,9.0658499 6.4,9.1870599 6.0424242,9.3143299 2.8060606,10.43554 0.4848485,12.20524 0.4848485,14.03554 c 0,1.89091 2.4727273,3.78788 5.8363636,4.9394 0.2727273,0.0909 0.5454546,0.18182 0.8242424,0.2606 -0.090909,0.36364 -0.1696969,0.72122 -0.2424242,1.09091 -0.6363636,3.36364 -0.1393939,6.03031 1.4484849,6.94546 1.6363636,0.94545 4.3878788,-0.0242 7.0666668,-2.3697 0.212121,-0.18788 0.424242,-0.38182 0.636363,-0.58788 0.266667,0.26061 0.545455,0.50909 0.824243,0.75152 2.593939,2.2303 5.157576,3.13333 6.739394,2.21818 1.636363,-0.94546 2.169697,-3.81212 1.478788,-7.30303 -0.05455,-0.26667 -0.115152,-0.5394 -0.181818,-0.81818 0.193939,-0.0545 0.381818,-0.11516 0.569696,-0.17576 3.49697,-1.15758 6.030304,-3.0303 6.030304,-4.95152 0,-1.83636 -2.387879,-3.61818 -5.684849,-4.7515101 z m -8.2,-5.14546 c 2.254545,-1.96363 4.357576,-2.73333 5.315152,-2.18181 1.024242,0.58787 1.418181,2.96363 0.775757,6.08484 -0.04242,0.20606 -0.08485,0.40606 -0.139394,0.60606 -1.345454,-0.30303 -2.709091,-0.52121 -4.078788,-0.64242 -0.787878,-1.12727 -1.648485,-2.20606 -2.581818,-3.21818 0.236364,-0.22424 0.466667,-0.43637 0.709091,-0.64849 z M 10.618182,17.181 c 0.309091,0.52727 0.624242,1.05454 0.957576,1.56969 -0.945455,-0.10303 -1.8848489,-0.25454 -2.8121216,-0.45454 0.2666666,-0.87273 0.6,-1.77576 0.9878788,-2.69697 0.2787878,0.53333 0.5636368,1.06061 0.8666668,1.58182 z M 8.7818182,9.8900899 c 0.8727273,-0.19394 1.7999998,-0.35152 2.7636368,-0.47273 -0.321213,0.50303 -0.636364,1.0181801 -0.933334,1.5394001 -0.296969,0.51515 -0.587879,1.04242 -0.8606058,1.57575 C 9.369697,11.62948 9.0484848,10.74463 8.7818182,9.8900899 Z M 10.442424,14.06585 c 0.4,-0.83637 0.836364,-1.65455 1.29697,-2.46061 0.460606,-0.80606 0.957576,-1.58788 1.478788,-2.3575801 0.909091,-0.0666 1.836363,-0.10303 2.781818,-0.10303 0.945455,0 1.878788,0.0364 2.781818,0.10303 0.515152,0.7636401 1.006061,1.5454601 1.472727,2.3454601 0.466667,0.8 0.903031,1.61818 1.315152,2.44848 -0.406061,0.83637 -0.842424,1.66061 -1.309091,2.47273 -0.460606,0.80606 -0.951515,1.58788 -1.466667,2.36364 -0.90303,0.0666 -1.842424,0.097 -2.793939,0.097 -0.951515,0 -1.872727,-0.0303 -2.763636,-0.0849 -0.527273,-0.7697 -1.024243,-1.55758 -1.490909,-2.36364 -0.466667,-0.80606 -0.89697,-1.62424 -1.303031,-2.4606 z m 10.945455,3.10303 c 0.309091,-0.53334 0.6,-1.07273 0.884848,-1.61819 0.387879,0.87879 0.727273,1.7697 1.024243,2.68485 -0.939394,0.21212 -1.890909,0.37576 -2.848485,0.48485 0.327273,-0.50909 0.636363,-1.0303 0.939394,-1.55151 z m 0.872727,-4.63637 c -0.284848,-0.53333 -0.575758,-1.06666 -0.878788,-1.58788 -0.29697,-0.51515 -0.60606,-1.0242401 -0.927273,-1.5272701 0.975758,0.12121 1.909091,0.28485 2.781819,0.48485 C 22.957576,10.79918 22.630303,11.67191 22.260606,12.53251 Z M 16.012121,5.7143299 c 0.636364,0.69091 1.236364,1.41818 1.79394,2.1697 -1.2,-0.0545 -2.406061,-0.0545 -3.606061,0 0.593939,-0.78182 1.206061,-1.50909 1.812121,-2.1697 z m -7.0303028,-3.71515 c 1.0181818,-0.59394 3.2787878,0.25454 5.6606058,2.36364 0.151515,0.13333 0.303031,0.27878 0.460606,0.42424 -0.939394,1.01212 -1.80606,2.09091 -2.6,3.21818 -1.369697,0.12121 -2.7272724,0.33333 -4.072727,0.6303 -0.078788,-0.30909 -0.1454545,-0.62424 -0.2121212,-0.93939 -0.569697,-2.93333 -0.1939394,-5.14546 0.7636364,-5.69697 z M 7.4969697,17.97494 C 7.2424242,17.90224 6.9939394,17.82342 6.7454545,17.73857 5.4545455,17.33251 3.9878788,16.69009 2.9272727,15.84766 2.3151515,15.42342 1.9030303,14.76888 1.7878788,14.03554 c 0,-1.10909 1.9151515,-2.52727 4.6787879,-3.49091 C 6.8121212,10.42342 7.1636364,10.31433 7.5151515,10.2113 7.9272727,11.52645 8.4242424,12.81736 9,14.06585 8.4181818,15.33251 7.9151515,16.6416 7.4969697,17.97494 Z m 7.0666663,5.93939 c -1,0.91515 -2.157575,1.64243 -3.418181,2.13939 -0.672728,0.32122 -1.4484853,0.35152 -2.1393944,0.0788 -0.9636364,-0.55757 -1.3636364,-2.69697 -0.8181818,-5.57576 0.066667,-0.33939 0.1393939,-0.67878 0.2242424,-1.01212 1.3575758,0.29091 2.7272728,0.49091 4.1151518,0.59394 0.8,1.13334 1.678788,2.21818 2.618182,3.23637 -0.19394,0.18787 -0.387879,0.36969 -0.581819,0.53939 z m 1.484849,-1.47273 c -0.618182,-0.66666 -1.236364,-1.40606 -1.836364,-2.2 0.581818,0.0242 1.181818,0.0364 1.787879,0.0364 0.624242,0 1.236364,-0.0121 1.842424,-0.0424 -0.557576,0.7697 -1.157576,1.50303 -1.793939,2.20606 z m 7.921212,1.81819 c -0.05455,0.73939 -0.418182,1.4303 -1,1.89697 -0.963636,0.55757 -3.018182,-0.1697 -5.236364,-2.07273 -0.254545,-0.21818 -0.509091,-0.45455 -0.769697,-0.69697 0.927273,-1.02424 1.781819,-2.10909 2.557576,-3.24849 1.387879,-0.11515 2.769697,-0.32727 4.133333,-0.63636 0.06061,0.24848 0.115152,0.49697 0.163637,0.73939 0.29697,1.30909 0.345454,2.67273 0.151515,4.01819 z m 1.10303,-6.51516 c -0.169697,0.0545 -0.339394,0.10909 -0.515151,0.15758 -0.424243,-1.32121 -0.945455,-2.61212 -1.545455,-3.86667 0.581818,-1.23636 1.072727,-2.50909 1.484849,-3.81212 0.315151,0.0909 0.618182,0.18788 0.909091,0.28485 2.824242,0.9697 4.80606,2.41212 4.80606,3.51515 0,1.18788 -2.115151,2.72121 -5.139394,3.72121 z M 16,16.83554 c 1.533333,0 2.775758,-1.24242 2.775758,-2.77575 0,-1.53334 -1.242425,-2.77576 -2.775758,-2.77576 -1.533333,0 -2.775758,1.24242 -2.775758,2.77576 0,1.53333 1.242425,2.77575 2.775758,2.77575 z" />
</svg>
