<?xml version="1.0" encoding="UTF-8" standalone="no"?>
<svg
   xmlns:dc="http://purl.org/dc/elements/1.1/"
   xmlns:cc="http://creativecommons.org/ns#"
   xmlns:rdf="http://www.w3.org/1999/02/22-rdf-syntax-ns#"
   xmlns:svg="http://www.w3.org/2000/svg"
   xmlns="http://www.w3.org/2000/svg"
   viewBox="0 0 32 29.190548"
   width="32"
   height="29.190548"
   version="1.1"
   id="svg5">
  <metadata
     id="metadata11">
    <rdf:RDF>
      <cc:Work
         rdf:about="">
        <dc:format>image/svg+xml</dc:format>
        <dc:type
           rdf:resource="http://purl.org/dc/dcmitype/StillImage" />
        <dc:title></dc:title>
      </cc:Work>
    </rdf:RDF>
  </metadata>
  <defs
     id="defs9" />
  <g
     id="surface5549617"
     style="fill:#bf3d4a;fill-opacity:1;stroke:#1ceaea;stroke-opacity:1"
     transform="matrix(1.0550304,0,0,1.0550304,-0.88094429,-2.2872732)">
    <path
       style="fill:#bf3d4a;fill-opacity:1;fill-rule:nonzero;stroke:#1ceaea;stroke-opacity:1"
       d="M 15.332031,2.667969 C 11.222656,2.667969 8,7.441406 8,13.539062 8,16.292969 8.6875,18.734375 9.789062,20.625 9.71875,20.851562 9.667969,21.085938 9.667969,21.332031 c 0,1.289063 1.042969,2.335938 2.332031,2.335938 1.289062,0 2.332031,-1.046875 2.332031,-2.335938 C 14.332031,20.046875 13.289062,19 12,19 c -0.02344,0 -0.05078,0.0078 -0.07422,0.0078 -0.769531,-1.464843 -1.257812,-3.375 -1.257812,-5.46875 0,-4.449218 2.136719,-8.207031 4.664062,-8.207031 1.714844,0 3.246094,1.730469 4.058594,4.226563 0.992187,0.160156 1.976563,0.429687 2.960937,0.769531 C 21.449219,5.847656 18.6875,2.667969 15.332031,2.667969 Z m -0.164062,8.664062 c -1.289063,0 -2.335938,1.046875 -2.335938,2.335938 0,1.285156 1.046875,2.332031 2.335938,2.332031 0.914062,0 1.699219,-0.53125 2.082031,-1.300781 1.722656,0.07813 3.640625,0.578125 5.453125,1.558593 2.613281,1.414063 4.585937,3.589844 5.140625,5.675782 0.285156,1.070312 0.183594,2.011718 -0.296875,2.792968 -0.957031,1.558594 -3.246094,2.179688 -5.855469,1.851563 -0.769531,0.789063 -1.652344,1.511719 -2.609375,2.167969 1.335938,0.386718 2.65625,0.589844 3.898438,0.589844 2.980469,0 5.53125,-1.085938 6.835937,-3.210938 0.871094,-1.414062 1.078125,-3.101562 0.601563,-4.878906 -0.75,-2.8125 -3.164063,-5.554688 -6.445313,-7.332032 -2.398437,-1.300781 -4.894531,-1.90625 -7.15625,-1.894531 -0.421875,-0.425781 -1.003906,-0.6875 -1.648437,-0.6875 z M 5.464844,15.65625 c -1.949219,1.613281 -3.34375,3.578125 -3.882813,5.589844 -0.476562,1.777344 -0.265625,3.464844 0.601563,4.875 1.304687,2.125 3.855468,3.210937 6.835937,3.210937 2.257813,0 4.757813,-0.617187 7.148438,-1.914062 2.277343,-1.234375 4.121093,-2.933594 5.296875,-4.796875 1.066406,-0.214844 1.867187,-1.160156 1.867187,-2.289063 C 23.332031,19.046875 22.289062,18 21,18 c -1.289062,0 -2.332031,1.046875 -2.332031,2.332031 0,0.4375 0.125,0.839844 0.335937,1.1875 C 18.058594,22.875 16.625,24.140625 14.898438,25.074219 10.738281,27.328125 5.953125,27.167969 4.453125,24.722656 3.972656,23.941406 3.871094,23.003906 4.160156,21.933594 4.449219,20.84375 5.128906,19.734375 6.082031,18.71875 c -0.292969,-0.964844 -0.5,-1.992188 -0.617187,-3.0625 z m 0,0"
       id="path2" />
  </g>
  <g
     transform="matrix(1.0550304,0,0,1.0550304,-0.88094429,-2.2872732)"
     style="fill:#bf3d4a;fill-opacity:1;stroke:#1ceaea;stroke-opacity:1"
     id="g816">
    <path
       id="path814"
       d="M 15.332031,2.667969 C 11.222656,2.667969 8,7.441406 8,13.539062 8,16.292969 8.6875,18.734375 9.789062,20.625 9.71875,20.851562 9.667969,21.085938 9.667969,21.332031 c 0,1.289063 1.042969,2.335938 2.332031,2.335938 1.289062,0 2.332031,-1.046875 2.332031,-2.335938 C 14.332031,20.046875 13.289062,19 12,19 c -0.02344,0 -0.05078,0.0078 -0.07422,0.0078 -0.769531,-1.464843 -1.257812,-3.375 -1.257812,-5.46875 0,-4.449218 2.136719,-8.207031 4.664062,-8.207031 1.714844,0 3.246094,1.730469 4.058594,4.226563 0.992187,0.160156 1.976563,0.429687 2.960937,0.769531 C 21.449219,5.847656 18.6875,2.667969 15.332031,2.667969 Z m -0.164062,8.664062 c -1.289063,0 -2.335938,1.046875 -2.335938,2.335938 0,1.285156 1.046875,2.332031 2.335938,2.332031 0.914062,0 1.699219,-0.53125 2.082031,-1.300781 1.722656,0.07813 3.640625,0.578125 5.453125,1.558593 2.613281,1.414063 4.585937,3.589844 5.140625,5.675782 0.285156,1.070312 0.183594,2.011718 -0.296875,2.792968 -0.957031,1.558594 -3.246094,2.179688 -5.855469,1.851563 -0.769531,0.789063 -1.652344,1.511719 -2.609375,2.167969 1.335938,0.386718 2.65625,0.589844 3.898438,0.589844 2.980469,0 5.53125,-1.085938 6.835937,-3.210938 0.871094,-1.414062 1.078125,-3.101562 0.601563,-4.878906 -0.75,-2.8125 -3.164063,-5.554688 -6.445313,-7.332032 -2.398437,-1.300781 -4.894531,-1.90625 -7.15625,-1.894531 -0.421875,-0.425781 -1.003906,-0.6875 -1.648437,-0.6875 z M 5.464844,15.65625 c -1.949219,1.613281 -3.34375,3.578125 -3.882813,5.589844 -0.476562,1.777344 -0.265625,3.464844 0.601563,4.875 1.304687,2.125 3.855468,3.210937 6.835937,3.210937 2.257813,0 4.757813,-0.617187 7.148438,-1.914062 2.277343,-1.234375 4.121093,-2.933594 5.296875,-4.796875 1.066406,-0.214844 1.867187,-1.160156 1.867187,-2.289063 C 23.332031,19.046875 22.289062,18 21,18 c -1.289062,0 -2.332031,1.046875 -2.332031,2.332031 0,0.4375 0.125,0.839844 0.335937,1.1875 C 18.058594,22.875 16.625,24.140625 14.898438,25.074219 10.738281,27.328125 5.953125,27.167969 4.453125,24.722656 3.972656,23.941406 3.871094,23.003906 4.160156,21.933594 4.449219,20.84375 5.128906,19.734375 6.082031,18.71875 c -0.292969,-0.964844 -0.5,-1.992188 -0.617187,-3.0625 z m 0,0"
       style="fill:#bf3d4a;fill-opacity:1;fill-rule:nonzero;stroke:#1ceaea;stroke-opacity:1" />
  </g>
</svg>
