<?xml version="1.0" encoding="UTF-8" standalone="no"?>
<svg
   xmlns:dc="http://purl.org/dc/elements/1.1/"
   xmlns:cc="http://creativecommons.org/ns#"
   xmlns:rdf="http://www.w3.org/1999/02/22-rdf-syntax-ns#"
   xmlns:svg="http://www.w3.org/2000/svg"
   xmlns="http://www.w3.org/2000/svg"
   height="31.999996"
   width="32"
   id="svg4"
   version="1.1"
   viewBox="0 0 32 31.999996">
  <metadata
     id="metadata10">
    <rdf:RDF>
      <cc:Work
         rdf:about="">
        <dc:format>image/svg+xml</dc:format>
        <dc:type
           rdf:resource="http://purl.org/dc/dcmitype/StillImage" />
        <dc:title></dc:title>
      </cc:Work>
    </rdf:RDF>
  </metadata>
  <defs
     id="defs8" />
  <!-- Font Awesome Free 5.15.1 by @fontawesome - https://fontawesome.com License - https://fontawesome.com/license/free (Icons: CC BY 4.0, Fonts: SIL OFL 1.1, Code: MIT License) -->
  <path
     style="fill:#bf3d4a;fill-opacity:1;stroke:#1ceaea;stroke-width:0.969697;stroke-miterlimit:4;stroke-dasharray:none;stroke-opacity:1"
     id="path2"
     d="m 7.4521212,21.419218 c 3.3641558,0.22926 4.0831168,0.14615 4.0831168,0.82702 0,1.38528 -4.5402597,1.38944 -4.5402597,0.10528 6.927e-4,-0.35256 0.2278788,-0.65109 0.4571429,-0.9323 z m 1.9359308,-8.07896 c -2.2365368,0 -2.3376624,3.08017 -0.051949,3.08017 2.251775,0 2.196363,-3.08017 0.051949,-3.08017 z m 22.1271,-9.5307395 V 28.190478 a 3.3246753,3.3246753 0 0 1 -3.324675,3.32467 H 3.8095238 A 3.3246753,3.3246753 0 0 1 0.4848485,28.190478 V 3.8095185 a 3.3246753,3.3246753 0 0 1 3.3246753,-3.32467 H 28.190477 a 3.3246753,3.3246753 0 0 1 3.324675,3.32467 z m -15.722944,4.8007 c 0,1.00364 0.580433,1.5847595 1.583376,1.5847595 1.020953,0 1.602078,-0.5811195 1.602078,-1.5847595 0,-1.00364 -0.57974,-1.54529 -1.600692,-1.54529 -1.002944,0 -1.584762,0.54303 -1.584762,1.54529 z m -1.511342,3.1646695 h -3.432035 c -1.7316015,-0.45368 -5.6491773,-0.33593 -5.6491773,3.23809 0,1.30217 0.6510822,2.21646 1.5134199,2.63966 -1.0867532,0.99532 -1.6013853,1.46425 -1.6013853,2.12918 0,0.47584 0.1932468,0.91567 0.7743723,1.16086 -0.6164502,0.58182 -0.969697,1.00295 -0.969697,1.79533 0.00139,1.39013 1.2155844,2.19706 4.401039,2.19706 3.0628574,0 4.8394804,-1.14355 4.8394804,-3.16745 0,-2.53992 -1.955325,-2.44641 -6.5641557,-2.72762 l 0.5804328,-0.93022 c 1.1774892,0.32832 5.1387009,0.43151 5.1387009,-2.93887 0,-0.8097 -0.334545,-1.37281 -0.651081,-1.77801 l 1.619394,-0.12329 z m 5.841732,7.60797 -0.900434,-0.12329 c -0.264588,-0.0353 -0.281904,-0.0693 -0.281904,-0.35255 v -7.30391 h -3.64329 l -0.193247,1.42477 c 1.090909,0.38442 1.177489,0.33662 1.177489,0.70442 v 5.17679 c 0,0.38927 -0.02147,0.31723 -1.177489,0.47584 v 1.38944 h 5.016103 z m 6.959653,0.70372 -0.475844,-1.54944 c -2.834978,1.0646 -2.621645,-0.85956 -2.621645,-1.15878 v -4.20572 h 2.621645 v -1.76 h -2.481039 c -0.198788,0 -0.138528,0.17455 -0.138528,-2.6756695 H 22.312035 C 22.118788,10.655578 21.50303,11.429948 19.957056,11.605888 v 1.56675 c 1.417836,0 1.372815,-0.0589 1.372815,0.17593 v 4.61091 c 0,1.98926 0.791687,2.8336 2.886233,2.8336 1.000866,0 2.109091,-0.33455 2.866147,-0.7065 z" />
</svg>
