<?xml version="1.0" encoding="UTF-8" standalone="no"?>
<svg
   xmlns:dc="http://purl.org/dc/elements/1.1/"
   xmlns:cc="http://creativecommons.org/ns#"
   xmlns:rdf="http://www.w3.org/1999/02/22-rdf-syntax-ns#"
   xmlns:svg="http://www.w3.org/2000/svg"
   xmlns="http://www.w3.org/2000/svg"
   viewBox="0 0 32 31.992468"
   width="32"
   height="31.992468"
   version="1.1"
   id="svg5">
  <metadata
     id="metadata11">
    <rdf:RDF>
      <cc:Work
         rdf:about="">
        <dc:format>image/svg+xml</dc:format>
        <dc:type
           rdf:resource="http://purl.org/dc/dcmitype/StillImage" />
        <dc:title></dc:title>
      </cc:Work>
    </rdf:RDF>
  </metadata>
  <defs
     id="defs9" />
  <g
     id="surface47595795"
     style="fill:#bf3d4a;fill-opacity:1;stroke:#1ceaea;stroke-opacity:1"
     transform="matrix(0.97889294,0,0,0.97889294,-1.6117689,-1.6225576)">
    <path
       style="fill:#bf3d4a;fill-opacity:1;fill-rule:nonzero;stroke:#1ceaea;stroke-opacity:1"
       d="m 21.503906,2.164062 c -0.07422,0.011719 -0.152344,0.035157 -0.222656,0.070313 -0.621094,0.304687 -1.324219,1.214844 -1.457031,1.398437 -0.01172,0.00781 -0.01953,0.019532 -0.02344,0.03125 -0.695312,1.042969 -1.066406,2.257813 -1.082031,3.527344 -0.0078,0.949219 0.179688,1.894532 0.554688,2.800782 0.878906,2.105468 2.699218,3.851562 4.867187,4.667968 0.07422,0.02344 0.144531,0.05078 0.273437,0.09375 0.0078,0.0078 0.117188,0.03906 0.132813,0.04297 l 0.07813,0.02734 c 0.113281,0.03516 0.230469,0.07422 0.339844,0.09766 0.574218,0.113281 1.128906,0.179687 1.652344,0.195313 0.08984,0 0.179687,0.0039 0.269531,0.0039 3.945312,0 5.476562,-2.785156 5.984375,-3.714844 0.05078,-0.08984 0.08984,-0.160156 0.121094,-0.207031 0,-0.0039 0,-0.0039 0.0039,-0.0039 0.222656,-0.332031 0.136718,-0.777343 -0.191406,-1.003906 -0.324219,-0.222656 -0.773438,-0.136718 -1,0.191406 -1.054685,1.55078 -2.85156,2.01953 -5.347654,1.402342 -0.183593,-0.04687 -0.386719,-0.117187 -0.566406,-0.183594 C 25.652344,11.515625 25.417969,11.417969 25.195312,11.3125 24.761719,11.09375 24.351562,10.835938 23.980469,10.550781 21.785156,8.847656 20.929688,5.308594 22.210938,3.261719 22.382812,2.988281 22.351562,2.636719 22.132812,2.394531 21.972656,2.214844 21.734375,2.132812 21.503906,2.164062 Z M 15.125,3.601562 c -0.164062,-0.00391 -0.328125,0.050782 -0.464844,0.160157 -1.085937,0.886719 -2.199218,2.339843 -2.25,2.398437 -0.0039,0.011719 -0.01172,0.019532 -0.01953,0.03125 -1.96875,2.863282 -2.117187,6.941406 -0.375,10.386719 0.273437,0.546875 0.582031,1.066406 0.910156,1.546875 l 0.09766,0.140625 c 0.28125,0.40625 0.59375,0.867187 0.992187,1.226563 0.136719,0.160156 0.285156,0.3125 0.433594,0.457031 l 0.07031,0.07422 0.05859,0.05859 c 0.148437,0.144531 0.300781,0.289063 0.457031,0.429688 h 0.0039 c 0.01172,0.01563 0.02734,0.02734 0.04297,0.04297 0.175781,0.15625 0.355469,0.304687 0.59375,0.492187 l 0.06641,0.05078 c 0.183593,0.148438 0.375,0.289063 0.566406,0.425782 0.01953,0.01562 0.03906,0.02734 0.05859,0.04297 0.07031,0.04297 0.136718,0.08594 0.203124,0.136719 l 0.07031,0.04297 0.07813,0.05078 c 0.140625,0.09375 0.28125,0.183594 0.484375,0.296875 0.128906,0.07813 0.265625,0.160156 0.355469,0.203125 0.03906,0.02344 0.08203,0.04687 0.179687,0.09766 l 0.21875,0.117188 c 0.01172,0.0039 0.0625,0.02734 0.07422,0.03516 0.144531,0.07031 0.292969,0.140625 0.441406,0.210937 l 0.226563,0.09766 C 18.847656,22.921875 19,22.984375 19.1875,23.054688 l 0.08203,0.03125 c 0.0078,0.0039 0.07813,0.03125 0.08203,0.03125 0.136719,0.05078 0.273438,0.09766 0.410157,0.140624 l 0.316406,0.105469 c 0.15625,0.05469 0.339844,0.117188 0.539063,0.148438 0.984374,0.164062 1.9375,0.25 2.839843,0.25 0.105469,0 0.214844,-0.0039 0.316407,-0.0039 7.949218,-0.175781 10.015624,-6.929687 10.035156,-6.996093 0.09766,-0.339844 -0.0625,-0.703125 -0.382813,-0.855469 -0.320312,-0.152344 -0.703125,-0.04297 -0.902343,0.25 -2.011719,2.941406 -5.820313,4.183594 -9.699219,3.160156 -0.179688,-0.04687 -0.355469,-0.09766 -0.570313,-0.167968 -0.03906,-0.0078 -0.07031,-0.01953 -0.128906,-0.04297 -0.125,-0.03906 -0.25,-0.08203 -0.390625,-0.136719 l -0.199219,-0.07422 c -0.113281,-0.04687 -0.230468,-0.08984 -0.371094,-0.152343 l -0.09375,-0.04297 C 20.898436,18.628913 20.734373,18.546879 20.585936,18.47266 L 20.175781,18.257812 C 20.082031,18.214844 20,18.164062 19.875,18.085938 l -0.07031,-0.03906 -0.07031,-0.04297 c -0.105469,-0.05859 -0.210937,-0.125 -0.304687,-0.191406 l -0.07031,-0.04297 c -0.0039,-0.0039 -0.05859,-0.04297 -0.06641,-0.04687 -0.08203,-0.05469 -0.164063,-0.109375 -0.242188,-0.160156 -0.175781,-0.121094 -0.347656,-0.25 -0.546875,-0.410156 l -0.07813,-0.0625 c -1.855469,-1.484375 -3.230469,-3.464844 -3.875,-5.585938 -0.597656,-1.949218 -0.152343,-4.5 1.191407,-6.824218 C 15.914061,4.378912 15.851561,3.9961 15.585937,3.773444 15.453125,3.660156 15.289062,3.601562 15.125,3.601562 Z M 7.203125,5.761719 c -0.171875,0 -0.347656,0.058593 -0.484375,0.183593 -1.375,1.234376 -2.40625,2.835938 -2.515625,3.019532 -2.941406,4.28125 -2.375,10.9375 -0.355469,15.007812 0.039063,0.08594 0.082032,0.167969 0.125,0.25 L 4,24.265625 c 0.035156,0.08203 0.078125,0.167969 0.09375,0.183594 0.019531,0.05469 0.054688,0.113281 0.070312,0.128906 0.03125,0.07031 0.066407,0.132813 0.128907,0.238281 l 0.230469,0.398438 c 0.03125,0.05078 0.066406,0.109375 0.078124,0.128906 0.042969,0.07422 0.09375,0.148438 0.140626,0.226562 L 4.855469,25.75 c 0.03125,0.05078 0.066406,0.101562 0.089843,0.128906 0.113282,0.171875 0.222657,0.347656 0.347657,0.511719 0.00391,0.01172 0.011719,0.01563 0.015625,0.02344 l 0.046875,0.05859 C 5.457031,26.621094 5.558594,26.761719 5.652344,26.875 L 6.0625,27.398438 c 0.00781,0.0039 0.050781,0.05859 0.054688,0.0625 l 0.058593,0.06641 c 0.125,0.152344 0.257813,0.304687 0.386719,0.453125 0.023438,0.01953 0.042969,0.03906 0.0625,0.0625 0.125,0.136719 0.253906,0.277343 0.390625,0.417969 l 0.128906,0.125 c 0.105469,0.113281 0.214844,0.222656 0.324219,0.328124 0,0 0.054688,0.05078 0.054688,0.05078 l 0.113281,0.105468 c 0.132812,0.128907 0.273437,0.257813 0.382812,0.347657 0.00391,0.0078 0.105469,0.09766 0.113281,0.101562 0.132813,0.117188 0.265626,0.230469 0.398438,0.339844 l 0.691406,0.546875 c 0.113282,0.08594 0.234375,0.167969 0.367188,0.265625 0.046875,0.03516 0.09375,0.07031 0.140625,0.101563 0.019531,0.01562 0.042969,0.03125 0.058593,0.03906 l 0.515626,0.347656 c 0.1875,0.125 0.378906,0.238282 0.609374,0.375 l 0.121094,0.07031 c 0.144532,0.08594 0.289063,0.171875 0.429688,0.242187 0.08203,0.04687 0.160156,0.08594 0.230468,0.121094 0.101563,0.05469 0.207032,0.113281 0.371094,0.191406 0.01172,0.0078 0.128906,0.06641 0.144532,0.07031 0.160156,0.08203 0.328124,0.160156 0.535156,0.25 0,0.0039 0.06641,0.03516 0.06641,0.03516 0.191406,0.08203 0.378906,0.160156 0.621094,0.257813 0.04297,0.01562 0.08203,0.03125 0.08984,0.03516 0.171874,0.06641 0.355468,0.132812 0.503906,0.1875 0.01563,0.0039 0.08984,0.03516 0.105468,0.04297 0.199219,0.06641 0.398438,0.132813 0.648438,0.210938 0.04297,0.01172 0.08984,0.02734 0.09375,0.02734 l 0.144531,0.04687 c 0.171875,0.05078 0.347657,0.109375 0.535157,0.144531 1.339843,0.246094 2.648437,0.371094 3.886718,0.371094 10.316406,0 13.601563,-8.300782 13.632813,-8.382813 C 33.203125,25.121094 33.0625,24.746094 32.75,24.570312 32.4375,24.398438 32.046875,24.480469 31.828125,24.765625 29.179688,28.25 24.1875,29.542969 18.472656,28.230469 18.335938,28.195312 18.195312,28.15625 18.054688,28.113281 l -0.269532,-0.08203 c -0.183594,-0.05469 -0.363281,-0.117188 -0.542968,-0.179688 0,0 -0.08203,-0.03125 -0.08203,-0.03125 C 17,27.769531 16.84375,27.707031 16.707031,27.652344 l -0.160156,-0.0625 C 16.375,27.519531 16.199219,27.445312 16.03125,27.371094 l -0.09766,-0.04297 c -0.152344,-0.07031 -0.300782,-0.136719 -0.445313,-0.210937 -0.01172,-0.0039 -0.125,-0.0625 -0.136719,-0.0625 C 15.25,27.003906 15.148438,26.949219 15.019531,26.878906 L 14.429688,26.5625 C 14.371098,26.52344 14.308594,26.48828 14.25,26.457031 c -0.175781,-0.109375 -0.359375,-0.21875 -0.539062,-0.335937 -0.04297,-0.02344 -0.07813,-0.05078 -0.148438,-0.101563 -0.125,-0.07813 -0.246094,-0.160156 -0.421875,-0.28125 l -0.07031,-0.05078 c -0.121093,-0.08594 -0.238281,-0.175781 -0.339843,-0.25 -0.05859,-0.04297 -0.121094,-0.09375 -0.222657,-0.171875 -0.08984,-0.07031 -0.179687,-0.136719 -0.265624,-0.203125 l -0.15625,-0.128906 c -0.132813,-0.109375 -0.257813,-0.21875 -0.386719,-0.328125 -0.01563,-0.01953 -0.03125,-0.03125 -0.05078,-0.04297 -0.140626,-0.132812 -0.289063,-0.265625 -0.464844,-0.429688 L 10.675781,23.625 C 10.550781,23.5 10.429688,23.367188 10.289062,23.214844 10.160156,23.070312 10.035156,22.925781 9.867188,22.730469 L 9.566406,22.359375 C 9.527344,22.304688 9.488281,22.253906 9.441406,22.195312 9.335938,22.054688 9.234375,21.917969 9.128906,21.773438 6.328125,17.914062 5.597656,9.859375 7.78125,6.90625 8,6.613281 7.960938,6.195312 7.683594,5.945312 7.546875,5.820312 7.375,5.761719 7.203125,5.761719 Z m 0,0"
       id="path2" />
  </g>
  <g
     transform="matrix(0.97889294,0,0,0.97889294,-1.6117689,-1.6225576)"
     style="fill:#bf3d4a;fill-opacity:1;stroke:#1ceaea;stroke-opacity:1"
     id="g816">
    <path
       id="path814"
       d="m 21.503906,2.164062 c -0.07422,0.011719 -0.152344,0.035157 -0.222656,0.070313 -0.621094,0.304687 -1.324219,1.214844 -1.457031,1.398437 -0.01172,0.00781 -0.01953,0.019532 -0.02344,0.03125 -0.695312,1.042969 -1.066406,2.257813 -1.082031,3.527344 -0.0078,0.949219 0.179688,1.894532 0.554688,2.800782 0.878906,2.105468 2.699218,3.851562 4.867187,4.667968 0.07422,0.02344 0.144531,0.05078 0.273437,0.09375 0.0078,0.0078 0.117188,0.03906 0.132813,0.04297 l 0.07813,0.02734 c 0.113281,0.03516 0.230469,0.07422 0.339844,0.09766 0.574218,0.113281 1.128906,0.179687 1.652344,0.195313 0.08984,0 0.179687,0.0039 0.269531,0.0039 3.945312,0 5.476562,-2.785156 5.984375,-3.714844 0.05078,-0.08984 0.08984,-0.160156 0.121094,-0.207031 0,-0.0039 0,-0.0039 0.0039,-0.0039 0.222656,-0.332031 0.136718,-0.777343 -0.191406,-1.003906 -0.324219,-0.222656 -0.773438,-0.136718 -1,0.191406 -1.054685,1.55078 -2.85156,2.01953 -5.347654,1.402342 -0.183593,-0.04687 -0.386719,-0.117187 -0.566406,-0.183594 C 25.652344,11.515625 25.417969,11.417969 25.195312,11.3125 24.761719,11.09375 24.351562,10.835938 23.980469,10.550781 21.785156,8.847656 20.929688,5.308594 22.210938,3.261719 22.382812,2.988281 22.351562,2.636719 22.132812,2.394531 21.972656,2.214844 21.734375,2.132812 21.503906,2.164062 Z M 15.125,3.601562 c -0.164062,-0.00391 -0.328125,0.050782 -0.464844,0.160157 -1.085937,0.886719 -2.199218,2.339843 -2.25,2.398437 -0.0039,0.011719 -0.01172,0.019532 -0.01953,0.03125 -1.96875,2.863282 -2.117187,6.941406 -0.375,10.386719 0.273437,0.546875 0.582031,1.066406 0.910156,1.546875 l 0.09766,0.140625 c 0.28125,0.40625 0.59375,0.867187 0.992187,1.226563 0.136719,0.160156 0.285156,0.3125 0.433594,0.457031 l 0.07031,0.07422 0.05859,0.05859 c 0.148437,0.144531 0.300781,0.289063 0.457031,0.429688 h 0.0039 c 0.01172,0.01563 0.02734,0.02734 0.04297,0.04297 0.175781,0.15625 0.355469,0.304687 0.59375,0.492187 l 0.06641,0.05078 c 0.183593,0.148438 0.375,0.289063 0.566406,0.425782 0.01953,0.01562 0.03906,0.02734 0.05859,0.04297 0.07031,0.04297 0.136718,0.08594 0.203124,0.136719 l 0.07031,0.04297 0.07813,0.05078 c 0.140625,0.09375 0.28125,0.183594 0.484375,0.296875 0.128906,0.07813 0.265625,0.160156 0.355469,0.203125 0.03906,0.02344 0.08203,0.04687 0.179687,0.09766 l 0.21875,0.117188 c 0.01172,0.0039 0.0625,0.02734 0.07422,0.03516 0.144531,0.07031 0.292969,0.140625 0.441406,0.210937 l 0.226563,0.09766 C 18.847656,22.921875 19,22.984375 19.1875,23.054688 l 0.08203,0.03125 c 0.0078,0.0039 0.07813,0.03125 0.08203,0.03125 0.136719,0.05078 0.273438,0.09766 0.410157,0.140624 l 0.316406,0.105469 c 0.15625,0.05469 0.339844,0.117188 0.539063,0.148438 0.984374,0.164062 1.9375,0.25 2.839843,0.25 0.105469,0 0.214844,-0.0039 0.316407,-0.0039 7.949218,-0.175781 10.015624,-6.929687 10.035156,-6.996093 0.09766,-0.339844 -0.0625,-0.703125 -0.382813,-0.855469 -0.320312,-0.152344 -0.703125,-0.04297 -0.902343,0.25 -2.011719,2.941406 -5.820313,4.183594 -9.699219,3.160156 -0.179688,-0.04687 -0.355469,-0.09766 -0.570313,-0.167968 -0.03906,-0.0078 -0.07031,-0.01953 -0.128906,-0.04297 -0.125,-0.03906 -0.25,-0.08203 -0.390625,-0.136719 l -0.199219,-0.07422 c -0.113281,-0.04687 -0.230468,-0.08984 -0.371094,-0.152343 l -0.09375,-0.04297 C 20.898436,18.628913 20.734373,18.546879 20.585936,18.47266 L 20.175781,18.257812 C 20.082031,18.214844 20,18.164062 19.875,18.085938 l -0.07031,-0.03906 -0.07031,-0.04297 c -0.105469,-0.05859 -0.210937,-0.125 -0.304687,-0.191406 l -0.07031,-0.04297 c -0.0039,-0.0039 -0.05859,-0.04297 -0.06641,-0.04687 -0.08203,-0.05469 -0.164063,-0.109375 -0.242188,-0.160156 -0.175781,-0.121094 -0.347656,-0.25 -0.546875,-0.410156 l -0.07813,-0.0625 c -1.855469,-1.484375 -3.230469,-3.464844 -3.875,-5.585938 -0.597656,-1.949218 -0.152343,-4.5 1.191407,-6.824218 C 15.914061,4.378912 15.851561,3.9961 15.585937,3.773444 15.453125,3.660156 15.289062,3.601562 15.125,3.601562 Z M 7.203125,5.761719 c -0.171875,0 -0.347656,0.058593 -0.484375,0.183593 -1.375,1.234376 -2.40625,2.835938 -2.515625,3.019532 -2.941406,4.28125 -2.375,10.9375 -0.355469,15.007812 0.039063,0.08594 0.082032,0.167969 0.125,0.25 L 4,24.265625 c 0.035156,0.08203 0.078125,0.167969 0.09375,0.183594 0.019531,0.05469 0.054688,0.113281 0.070312,0.128906 0.03125,0.07031 0.066407,0.132813 0.128907,0.238281 l 0.230469,0.398438 c 0.03125,0.05078 0.066406,0.109375 0.078124,0.128906 0.042969,0.07422 0.09375,0.148438 0.140626,0.226562 L 4.855469,25.75 c 0.03125,0.05078 0.066406,0.101562 0.089843,0.128906 0.113282,0.171875 0.222657,0.347656 0.347657,0.511719 0.00391,0.01172 0.011719,0.01563 0.015625,0.02344 l 0.046875,0.05859 C 5.457031,26.621094 5.558594,26.761719 5.652344,26.875 L 6.0625,27.398438 c 0.00781,0.0039 0.050781,0.05859 0.054688,0.0625 l 0.058593,0.06641 c 0.125,0.152344 0.257813,0.304687 0.386719,0.453125 0.023438,0.01953 0.042969,0.03906 0.0625,0.0625 0.125,0.136719 0.253906,0.277343 0.390625,0.417969 l 0.128906,0.125 c 0.105469,0.113281 0.214844,0.222656 0.324219,0.328124 0,0 0.054688,0.05078 0.054688,0.05078 l 0.113281,0.105468 c 0.132812,0.128907 0.273437,0.257813 0.382812,0.347657 0.00391,0.0078 0.105469,0.09766 0.113281,0.101562 0.132813,0.117188 0.265626,0.230469 0.398438,0.339844 l 0.691406,0.546875 c 0.113282,0.08594 0.234375,0.167969 0.367188,0.265625 0.046875,0.03516 0.09375,0.07031 0.140625,0.101563 0.019531,0.01562 0.042969,0.03125 0.058593,0.03906 l 0.515626,0.347656 c 0.1875,0.125 0.378906,0.238282 0.609374,0.375 l 0.121094,0.07031 c 0.144532,0.08594 0.289063,0.171875 0.429688,0.242187 0.08203,0.04687 0.160156,0.08594 0.230468,0.121094 0.101563,0.05469 0.207032,0.113281 0.371094,0.191406 0.01172,0.0078 0.128906,0.06641 0.144532,0.07031 0.160156,0.08203 0.328124,0.160156 0.535156,0.25 0,0.0039 0.06641,0.03516 0.06641,0.03516 0.191406,0.08203 0.378906,0.160156 0.621094,0.257813 0.04297,0.01562 0.08203,0.03125 0.08984,0.03516 0.171874,0.06641 0.355468,0.132812 0.503906,0.1875 0.01563,0.0039 0.08984,0.03516 0.105468,0.04297 0.199219,0.06641 0.398438,0.132813 0.648438,0.210938 0.04297,0.01172 0.08984,0.02734 0.09375,0.02734 l 0.144531,0.04687 c 0.171875,0.05078 0.347657,0.109375 0.535157,0.144531 1.339843,0.246094 2.648437,0.371094 3.886718,0.371094 10.316406,0 13.601563,-8.300782 13.632813,-8.382813 C 33.203125,25.121094 33.0625,24.746094 32.75,24.570312 32.4375,24.398438 32.046875,24.480469 31.828125,24.765625 29.179688,28.25 24.1875,29.542969 18.472656,28.230469 18.335938,28.195312 18.195312,28.15625 18.054688,28.113281 l -0.269532,-0.08203 c -0.183594,-0.05469 -0.363281,-0.117188 -0.542968,-0.179688 0,0 -0.08203,-0.03125 -0.08203,-0.03125 C 17,27.769531 16.84375,27.707031 16.707031,27.652344 l -0.160156,-0.0625 C 16.375,27.519531 16.199219,27.445312 16.03125,27.371094 l -0.09766,-0.04297 c -0.152344,-0.07031 -0.300782,-0.136719 -0.445313,-0.210937 -0.01172,-0.0039 -0.125,-0.0625 -0.136719,-0.0625 C 15.25,27.003906 15.148438,26.949219 15.019531,26.878906 L 14.429688,26.5625 C 14.371098,26.52344 14.308594,26.48828 14.25,26.457031 c -0.175781,-0.109375 -0.359375,-0.21875 -0.539062,-0.335937 -0.04297,-0.02344 -0.07813,-0.05078 -0.148438,-0.101563 -0.125,-0.07813 -0.246094,-0.160156 -0.421875,-0.28125 l -0.07031,-0.05078 c -0.121093,-0.08594 -0.238281,-0.175781 -0.339843,-0.25 -0.05859,-0.04297 -0.121094,-0.09375 -0.222657,-0.171875 -0.08984,-0.07031 -0.179687,-0.136719 -0.265624,-0.203125 l -0.15625,-0.128906 c -0.132813,-0.109375 -0.257813,-0.21875 -0.386719,-0.328125 -0.01563,-0.01953 -0.03125,-0.03125 -0.05078,-0.04297 -0.140626,-0.132812 -0.289063,-0.265625 -0.464844,-0.429688 L 10.675781,23.625 C 10.550781,23.5 10.429688,23.367188 10.289062,23.214844 10.160156,23.070312 10.035156,22.925781 9.867188,22.730469 L 9.566406,22.359375 C 9.527344,22.304688 9.488281,22.253906 9.441406,22.195312 9.335938,22.054688 9.234375,21.917969 9.128906,21.773438 6.328125,17.914062 5.597656,9.859375 7.78125,6.90625 8,6.613281 7.960938,6.195312 7.683594,5.945312 7.546875,5.820312 7.375,5.761719 7.203125,5.761719 Z m 0,0"
       style="fill:#bf3d4a;fill-opacity:1;fill-rule:nonzero;stroke:#1ceaea;stroke-opacity:1" />
  </g>
</svg>
