<?xml version="1.0" encoding="UTF-8" standalone="no"?>
<svg
   xmlns:dc="http://purl.org/dc/elements/1.1/"
   xmlns:cc="http://creativecommons.org/ns#"
   xmlns:rdf="http://www.w3.org/1999/02/22-rdf-syntax-ns#"
   xmlns:svg="http://www.w3.org/2000/svg"
   xmlns="http://www.w3.org/2000/svg"
   height="38.543415"
   width="32"
   id="svg4"
   version="1.1"
   viewBox="0 0 32 38.543415">
  <metadata
     id="metadata10">
    <rdf:RDF>
      <cc:Work
         rdf:about="">
        <dc:format>image/svg+xml</dc:format>
        <dc:type
           rdf:resource="http://purl.org/dc/dcmitype/StillImage" />
        <dc:title></dc:title>
      </cc:Work>
    </rdf:RDF>
  </metadata>
  <defs
     id="defs8" />
  <!-- Font Awesome Free 5.15.1 by @fontawesome - https://fontawesome.com License - https://fontawesome.com/license/free (Icons: CC BY 4.0, Fonts: SIL OFL 1.1, Code: MIT License) -->
  <path
     style="fill:#bf3d4a;fill-opacity:1;stroke:#1ceaea;stroke-width:0.96964598;stroke-miterlimit:4;stroke-dasharray:none;stroke-opacity:1"
     id="path2"
     d="m 15.758705,9.5325839 c 0.07338,0.0367 0.132084,0.12475 0.220141,0.12475 0.08071,0 0.205464,-0.0294 0.212801,-0.11007 0.01468,-0.10273 -0.139421,-0.16877 -0.234816,-0.21279 -0.124746,-0.0514 -0.286181,-0.0734 -0.40359,-0.008 -0.02935,0.0146 -0.0587,0.0514 -0.04403,0.0807 0.02201,0.0954 0.168774,0.0807 0.249492,0.12475 z m -1.607021,0.12475 c 0.08805,0 0.146759,-0.0881 0.220139,-0.12475 0.08072,-0.044 0.227478,-0.0294 0.256831,-0.1174 0.01468,-0.0294 -0.01468,-0.066 -0.04403,-0.0807 -0.117409,-0.066 -0.278844,-0.044 -0.40359,0.008 -0.09539,0.044 -0.249493,0.11008 -0.234816,0.21281 0.0074,0.0734 0.132084,0.11006 0.205464,0.10272 z M 30.376002,30.115684 c -0.264168,-0.29353 -0.388914,-0.85121 -0.528337,-1.44559 -0.132083,-0.59437 -0.286181,-1.23278 -0.770489,-1.64371 -0.09539,-0.0808 -0.190789,-0.1541 -0.293521,-0.2128 -0.09539,-0.0587 -0.198126,-0.11007 -0.300858,-0.14676 0.675097,-2.00328 0.410929,-3.99921 -0.271505,-5.80436 -0.836532,-2.20874 -2.296794,-4.13863 -3.41217,-5.45947 -1.254799,-1.57768 -2.472907,-3.07463 -2.450893,-5.28336 0.03669,-3.3681501 0.374239,-9.62746011 -5.562203,-9.63479011 -7.514113,-0.0147 -5.635585,7.58749001 -5.716303,9.92097011 -0.124746,1.7171 -0.469631,3.06728 -1.65105,4.74769 -1.386882,1.65104 -3.33879,4.31474 -4.263377,7.09585 -0.440281,1.3135 -0.645745,2.64901 -0.454956,3.91115 -0.476971,0.4256 -0.836532,1.07868 -1.218108,1.48227 -0.308197,0.31553 -0.755815,0.43295 -1.247461,0.60905 -0.491646,0.17612 -1.02732,0.44029 -1.35752998,1.06401 -0.154097,0.28619 -0.205463,0.59439 -0.205463,0.90992 0,0.28618 0.04403,0.5797 0.08805,0.86588 0.08805,0.59438 0.18345,1.15207 0.0587,1.5263 -0.381576,1.05668 -0.432942,1.79048 -0.161437,2.32615 0.278844,0.53568 0.83653198,0.77049 1.47493798,0.90257 1.269475,0.26417 2.993905,0.19813 4.351434,0.91726 1.452925,0.76315 2.927863,1.03465 4.101942,0.76315 0.851209,-0.19079 1.548318,-0.70445 1.900542,-1.48228 0.91725,-0.008 1.929894,-0.39626 3.544255,-0.48431 1.093361,-0.088 2.465567,0.38892 4.043238,0.30086 0.04403,0.16878 0.102732,0.33755 0.18345,0.49165 v 0.008 c 0.609054,1.22545 1.746444,1.78314 2.957213,1.68775 1.218109,-0.0954 2.502258,-0.80719 3.544254,-2.04731 0.997969,-1.20343 2.641681,-1.70241 3.735043,-2.36284 0.543012,-0.3302 0.983292,-0.74114 1.019982,-1.34285 0.02935,-0.60172 -0.322873,-1.26947 -1.13739,-2.17939 z M 15.971508,6.8909139 c 0.719124,-1.62903 2.509596,-1.59968 3.22872,-0.0294 0.47697,1.04199 0.264167,2.26744 -0.315535,2.96455 -0.117407,-0.0587 -0.432942,-0.19079 -0.924588,-0.35957 0.08072,-0.088 0.227478,-0.19812 0.286182,-0.33754 0.352224,-0.86589 -0.01468,-1.98126 -0.667758,-2.00328 -0.535673,-0.0367 -1.019981,0.79251 -0.865883,1.68775 -0.300858,-0.14677 -0.689772,-0.25683 -0.953941,-0.32288 -0.07338,-0.50632 -0.02201,-1.07135 0.212803,-1.59968 z m -2.986566,-0.84387 c 0.741137,0 1.526304,1.042 1.401557,2.45822 -0.256829,0.0734 -0.520998,0.18346 -0.748476,0.33756 0.08805,-0.65309 -0.242153,-1.47494 -0.704447,-1.43825 -0.616393,0.0514 -0.719125,1.55565 -0.132085,2.06197 0.07338,0.0587 0.139422,-0.0146 -0.432942,0.4036 -1.144728,-1.07136 -0.77049,-3.8231 0.616393,-3.8231 z m -0.997969,4.4541601 c 0.454956,-0.33754 0.997969,-0.7338001 1.034658,-0.7704901 0.344887,-0.32287 0.99063,-1.04199 2.047303,-1.04199 0.520997,0 1.144727,0.16877 1.900542,0.65308 0.462293,0.30086 0.829194,0.32287 1.658387,0.6824301 0.616393,0.25683 1.005306,0.71179 0.770491,1.33552 -0.190789,0.521 -0.80718,1.05667 -1.665727,1.32818 -0.814517,0.26417 -1.452923,1.17407 -2.803116,1.09336 -0.286182,-0.0146 -0.51366,-0.0734 -0.704447,-0.15409 -0.587041,-0.25683 -0.895237,-0.76316 -1.4676,-1.10071 -0.631068,-0.35222 -0.968617,-0.76315 -1.078687,-1.12271 -0.102732,-0.35957 0,-0.66042 0.308196,-0.90258 z m 0.242155,24.50892 c -0.198127,2.57564 -3.221382,2.52428 -5.525514,1.32084 -2.194063,-1.1594 -5.033869,-0.47697 -5.613571,-1.60702 -0.17611198,-0.34489 -0.17611198,-0.93193 0.190789,-1.93723 v -0.0146 c 0.176112,-0.55768 0.04403,-1.17408 -0.04403,-1.75378 -0.08805,-0.57236 -0.132084,-1.1007 0.06604,-1.4676 0.25683,-0.49165 0.623729,-0.66775 1.086024,-0.82919 0.755813,-0.27151 0.865884,-0.2495 1.438247,-0.72647 0.40359,-0.41827 0.697111,-0.9466 1.049335,-1.32084 0.374238,-0.40359 0.7338,-0.59437 1.298825,-0.50632 0.594378,0.088 1.108039,0.49899 1.607022,1.17409 l 1.438248,2.61232 c 0.697111,1.46027 3.162678,3.55159 3.008581,5.05588 z m -0.102732,-1.90054 c -0.300859,-0.4843 -0.704449,-0.99797 -1.056673,-1.43824 0.520999,0 1.041996,-0.16144 1.225446,-0.65309 0.168774,-0.45496 0,-1.09336 -0.543012,-1.82716 -0.99063,-1.33551 -2.810454,-2.38485 -2.810454,-2.38485 -0.99063,-0.61639 -1.548318,-1.37221 -1.805148,-2.19406 -0.256829,-0.82186 -0.22014,-1.70976 -0.02201,-2.58298 0.381576,-1.6804 1.364868,-3.31677 1.995937,-4.34409 0.168773,-0.12475 0.0587,0.23481 -0.638407,1.5263 -0.62373,1.18141 -1.790472,3.91115 -0.190788,6.04651 0.04403,-1.51897 0.40359,-3.06729 1.012644,-4.51287 0.880561,-2.01061 2.737074,-5.49616 2.883835,-8.26992 0.08071,0.0587 0.337547,0.23481 0.454956,0.30085 0.337547,0.19813 0.594377,0.49165 0.924587,0.75582 0.909912,0.7338 2.091331,0.67509 3.111312,0.0881 0.454956,-0.25683 0.821856,-0.55036 1.166742,-0.66043 0.726463,-0.22747 1.306165,-0.63107 1.636375,-1.10069 0.565026,2.23074 1.885865,5.45213 2.729735,7.02246 0.447618,0.83654 1.342854,2.60499 1.731769,4.74035 0.242153,-0.008 0.51366,0.0294 0.799841,0.10273 1.012644,-2.61967 -0.858546,-5.4448 -1.709753,-6.22996 -0.344887,-0.33755 -0.359562,-0.48431 -0.190789,-0.47697 0.924589,0.82185 2.142697,2.47291 2.582976,4.32942 0.205464,0.8512 0.242155,1.7391 0.02935,2.61966 1.203433,0.49898 2.634342,1.31351 2.252766,2.55362 -0.161435,-0.008 -0.234815,0 -0.308196,0 0.234816,-0.74113 -0.286181,-1.29148 -1.673064,-1.91521 -1.438248,-0.63107 -2.641679,-0.63107 -2.810454,0.91725 -0.887898,0.3082 -1.342854,1.07869 -1.570332,2.00327 -0.205464,0.82186 -0.264167,1.81249 -0.322872,2.92787 -0.03669,0.56502 -0.264168,1.32083 -0.498983,2.12801 -2.355498,1.68041 -5.628246,2.41421 -8.387334,0.52834 z m 18.888011,-0.84387 c -0.06604,1.23279 -3.023255,1.46026 -4.637616,3.41218 -0.968615,1.15206 -2.157372,1.79047 -3.199367,1.87118 -1.041996,0.0808 -1.944571,-0.35222 -2.472907,-1.41624 -0.344885,-0.81451 -0.176112,-1.69507 0.08071,-2.66369 0.271505,-1.04199 0.675095,-2.11334 0.726461,-2.97923 0.0587,-1.11537 0.124746,-2.09132 0.308196,-2.8398 0.190789,-0.75581 0.484309,-1.26214 1.005306,-1.54832 0.02201,-0.0146 0.05136,-0.022 0.07338,-0.0367 0.0587,0.96861 0.535673,1.95191 1.379543,2.16471 0.924589,0.24215 2.252766,-0.55035 2.817793,-1.1961 0.66042,-0.022 1.152066,-0.066 1.658388,0.37425 0.726462,0.62372 0.520998,2.22341 1.254798,3.0526 0.777827,0.85121 1.02732,1.43091 1.005305,1.80515 z M 12.273156,11.396444 c 0.146759,0.13942 0.344885,0.33021 0.58704,0.521 0.484308,0.38157 1.159403,0.77783 2.003274,0.77783 0.851207,0 1.651049,-0.43295 2.333484,-0.79251 0.359561,-0.19079 0.799841,-0.51366 1.086024,-0.76315 0.286181,-0.24949 0.432942,-0.46229 0.227478,-0.48431 -0.205464,-0.022 -0.190789,0.19079 -0.440281,0.37424 -0.322871,0.23481 -0.711786,0.54301 -1.019982,0.71912 -0.543011,0.3082 -1.430909,0.74848 -2.194061,0.74848 -0.763153,0 -1.372207,-0.35222 -1.827163,-0.71179 -0.227478,-0.18344 -0.418266,-0.3669 -0.565026,-0.50632 -0.110069,-0.10273 -0.139421,-0.33755 -0.315533,-0.35956 -0.102732,-0.008 -0.132085,0.27151 0.124746,0.47697 z" />
</svg>
