<?xml version="1.0" encoding="UTF-8" standalone="no"?>
<svg
   xmlns:dc="http://purl.org/dc/elements/1.1/"
   xmlns:cc="http://creativecommons.org/ns#"
   xmlns:rdf="http://www.w3.org/1999/02/22-rdf-syntax-ns#"
   xmlns:svg="http://www.w3.org/2000/svg"
   xmlns="http://www.w3.org/2000/svg"
   height="35.9743"
   width="32"
   id="svg4"
   version="1.1"
   viewBox="0 0 32 35.9743">
  <metadata
     id="metadata10">
    <rdf:RDF>
      <cc:Work
         rdf:about="">
        <dc:format>image/svg+xml</dc:format>
        <dc:type
           rdf:resource="http://purl.org/dc/dcmitype/StillImage" />
        <dc:title></dc:title>
      </cc:Work>
    </rdf:RDF>
  </metadata>
  <defs
     id="defs8" />
  <!-- Font Awesome Free 5.15.1 by @fontawesome - https://fontawesome.com License - https://fontawesome.com/license/free (Icons: CC BY 4.0, Fonts: SIL OFL 1.1, Code: MIT License) -->
  <path
     style="fill:#bf3d4a;fill-opacity:1;stroke:#1ceaea;stroke-width:0.969697;stroke-miterlimit:4;stroke-dasharray:none;stroke-opacity:1"
     id="path2"
     d="m 15.993055,35.489452 c -0.465316,0 -0.937576,-0.12502 -1.347332,-0.36116 l -4.28507,-2.53491 c -0.6389411,-0.36115 -0.326416,-0.48616 -0.118066,-0.55561 0.854236,-0.29864 1.027862,-0.36114 1.937658,-0.88201 0.09723,-0.0555 0.22224,-0.0347 0.31947,0.0277 l 3.291935,1.95155 c 0.118064,0.0695 0.284744,0.0695 0.395865,0 l 12.827433,-7.40338 c 0.118065,-0.0694 0.194461,-0.20835 0.194461,-0.34725 v -14.80676 c 0,-0.14584 -0.07639,-0.2778 -0.201406,-0.3542 L 16.187515,2.8270016 c -0.118065,-0.0695 -0.277801,-0.0695 -0.395865,0 L 2.978107,10.230382 c -0.1250102,0.0694 -0.2014053,0.20835 -0.2014053,0.35419 v 14.79981 c 0,0.1389 0.076394,0.27781 0.2014053,0.34031 l 3.5141748,2.02794 c 1.9098777,0.95147 3.0766393,-0.16668 3.0766393,-1.29872 v -14.6123 c 0,-0.20834 0.1666802,-0.36809 0.3750299,-0.36809 h 1.625134 c 0.201404,0 0.37503,0.15975 0.37503,0.36809 v 14.61925 c 0,2.54187 -1.389002,4.00033 -3.7989208,4.00033 -0.7431161,0 -1.3264968,0 -2.9516292,-0.80562 l -3.3613847,-1.93762 c -0.83340119,-0.4792 -1.3473318,-1.37512 -1.3473318,-2.34048 v -14.79981 c 0,-0.9584104 0.51393061,-1.8612604 1.3473318,-2.3404604 L 14.645723,0.83381155 c 0.812567,-0.45836 1.889043,-0.45836 2.694664,0 L 30.16782,8.2441416 c 0.833401,0.4792 1.347332,1.37511 1.347332,2.3404604 v 14.79982 c 0,0.95841 -0.513931,1.85433 -1.347332,2.34047 l -12.827433,7.40337 c -0.409755,0.23614 -0.875071,0.36116 -1.347332,0.36116 z m 10.355009,-14.59148 c 0,-2.77105 -1.875153,-3.50723 -5.812972,-4.0281 -3.986437,-0.52782 -4.389247,-0.79868 -4.389247,-1.7293 0,-0.77091 0.340306,-1.79876 3.291935,-1.79876 2.632158,0 3.60446,0.56949 4.00727,2.34741 0.03472,0.16668 0.187515,0.29169 0.361141,0.29169 h 1.666802 c 0.104175,0 0.201406,-0.0417 0.270855,-0.11807 0.06945,-0.0765 0.104175,-0.18057 0.09724,-0.28474 -0.256965,-3.06275 -2.291853,-4.48648 -6.4033,-4.48648 -3.66002,0 -5.840752,1.54179 -5.840752,4.13227 0,2.8058 2.173788,3.58365 5.681017,3.93089 4.201731,0.40975 4.528147,1.02786 4.528147,1.85432 0,1.43067 -1.152873,2.04183 -3.854481,2.04183 -3.396109,0 -4.139225,-0.85424 -4.389246,-2.54187 -0.02778,-0.18058 -0.18057,-0.31252 -0.368085,-0.31252 h -1.659862 c -0.208351,0 -0.368086,0.16666 -0.368086,0.36808 0,2.1599 1.173707,4.73649 6.792219,4.73649 4.055887,-0.007 6.389409,-1.61124 6.389409,-4.40314 z" />
</svg>
