<?xml version="1.0" encoding="UTF-8" standalone="no"?>
<svg
   xmlns:dc="http://purl.org/dc/elements/1.1/"
   xmlns:cc="http://creativecommons.org/ns#"
   xmlns:rdf="http://www.w3.org/1999/02/22-rdf-syntax-ns#"
   xmlns:svg="http://www.w3.org/2000/svg"
   xmlns="http://www.w3.org/2000/svg"
   height="17.289698"
   width="32"
   id="svg4"
   version="1.1"
   viewBox="0 0 32 17.289698">
  <metadata
     id="metadata10">
    <rdf:RDF>
      <cc:Work
         rdf:about="">
        <dc:format>image/svg+xml</dc:format>
        <dc:type
           rdf:resource="http://purl.org/dc/dcmitype/StillImage" />
        <dc:title></dc:title>
      </cc:Work>
    </rdf:RDF>
  </metadata>
  <defs
     id="defs8" />
  <!-- Font Awesome Free 5.15.1 by @fontawesome - https://fontawesome.com License - https://fontawesome.com/license/free (Icons: CC BY 4.0, Fonts: SIL OFL 1.1, Code: MIT License) -->
  <path
     style="fill:#bf3d4a;fill-opacity:1;stroke:#1ceaea;stroke-width:0.969697;stroke-miterlimit:4;stroke-dasharray:none;stroke-opacity:1"
     id="path2"
     d="m 16,1.299394 c 8.310303,0 14.700606,3.500606 14.700606,7.3454545 0,3.8448485 -6.395151,7.3454545 -14.700606,7.3454545 -8.310303,0 -14.7006061,-3.500606 -14.7006061,-7.3454545 C 1.2993939,4.8 7.6945455,1.299394 16,1.299394 m 0,-0.8145455 c -8.5672727,0 -15.5151515,3.6509091 -15.5151515,8.16 0,4.5090905 6.9478788,8.1600005 15.5151515,8.1600005 8.567273,0 15.515152,-3.65091 15.515152,-8.1600005 0,-4.5090909 -6.947879,-8.16 -15.515152,-8.16 z M 11.064242,7.9903031 C 10.681212,9.953939 9.3284848,9.750303 7.6654545,9.750303 L 8.329697,6.3272728 c 1.842424,0 3.093333,-0.1987879 2.734545,1.6630303 z M 5.2072727,13.21697 h 1.779394 l 0.4218181,-2.172121 c 1.9927273,0 3.2290912,0.145454 4.3733332,-0.926061 C 13.047273,8.9551515 13.37697,6.8848485 12.475152,5.8472728 12.004848,5.3042425 11.248485,5.0375758 10.220606,5.0375758 H 6.7927273 Z M 14.210909,2.8606061 h 1.769697 l -0.421818,2.1721212 c 1.527273,0 2.94303,-0.1115151 3.626667,0.5187879 0.717575,0.6593939 0.373333,1.5030303 -0.402425,5.4836368 H 16.989091 C 17.735758,7.1854546 17.876364,6.8654546 17.604848,6.5745455 17.34303,6.2933334 16.746667,6.3515152 15.306667,6.3515152 l -0.911515,4.6836368 h -1.769697 z m 10.758788,5.129697 C 24.581818,9.98303 23.190303,9.750303 21.570909,9.750303 l 0.664243,-3.4230302 c 1.852121,0 3.093333,-0.1987879 2.734545,1.6630303 z m -5.85697,5.2266669 h 1.784243 l 0.421818,-2.172121 c 2.094545,0 3.253333,0.121212 4.373333,-0.926061 1.265455,-1.1636365 1.595152,-3.2339395 0.693334,-4.2715152 -0.470303,-0.5430303 -1.226667,-0.809697 -2.254546,-0.809697 H 20.70303 Z" />
</svg>
