<?xml version="1.0" encoding="UTF-8" standalone="no"?>
<svg
   xmlns:dc="http://purl.org/dc/elements/1.1/"
   xmlns:cc="http://creativecommons.org/ns#"
   xmlns:rdf="http://www.w3.org/1999/02/22-rdf-syntax-ns#"
   xmlns:svg="http://www.w3.org/2000/svg"
   xmlns="http://www.w3.org/2000/svg"
   height="24.243462"
   width="31.999952"
   id="svg4"
   version="1.1"
   viewBox="0 0 31.999952 24.243462">
  <metadata
     id="metadata10">
    <rdf:RDF>
      <cc:Work
         rdf:about="">
        <dc:format>image/svg+xml</dc:format>
        <dc:type
           rdf:resource="http://purl.org/dc/dcmitype/StillImage" />
        <dc:title></dc:title>
      </cc:Work>
    </rdf:RDF>
  </metadata>
  <defs
     id="defs8" />
  <!-- Font Awesome Free 5.15.1 by @fontawesome - https://fontawesome.com License - https://fontawesome.com/license/free (Icons: CC BY 4.0, Fonts: SIL OFL 1.1, Code: MIT License) -->
  <path
     style="fill:#bf3d4a;fill-opacity:1;stroke:#1ceaea;stroke-width:0.96956265;stroke-miterlimit:4;stroke-dasharray:none;stroke-opacity:1"
     id="path2"
     d="m 15.121819,18.079656 c -0.01454,0.0291 -0.02909,0.0524 0,0 z m 12.077498,-4.21764 a 6.358466,6.358466 0 0 0 -2.811765,0.65445 c -0.286024,-0.57689 -0.581744,-1.08107 -0.630223,-1.4592 -0.05817,-0.44116 -0.121196,-0.70294 -0.05333,-1.22652 0.06787,-0.52357 0.373286,-1.26528 0.368438,-1.31861 -0.0048,-0.0533 -0.06787,-0.31997 -0.693245,-0.32481 -0.625376,-0.005 -1.163489,0.12119 -1.226027,0.28602 a 5.9546384,5.9546384 0 0 0 -0.256937,0.92595 c -0.111501,0.56719 -1.250265,2.59361 -1.895032,3.65044 -0.213306,-0.41207 -0.392677,-0.77566 -0.431461,-1.06653 -0.05817,-0.44116 -0.121196,-0.70294 -0.05333,-1.22651 0.06787,-0.52357 0.373287,-1.26529 0.368439,-1.31862 -0.0048,-0.0533 -0.06787,-0.31996 -0.69276,-0.32481 -0.624891,-0.005 -1.163489,0.12119 -1.226512,0.28603 -0.06302,0.16483 -0.130892,0.55265 -0.256937,0.92594 -0.126045,0.37328 -1.642943,3.7474 -2.039984,4.62486 -0.20361,0.44601 -0.378133,0.80475 -0.504178,1.04715 -0.01939,0.0388 -0.03393,0.063 -0.04363,0.0824 0.01454,-0.0242 0.02424,-0.0485 0.02424,-0.0388 -0.106653,0.20846 -0.169676,0.3248 -0.169676,0.3248 v 0.005 c -0.08241,0.15513 -0.174523,0.29572 -0.218154,0.29572 -0.02909,0 -0.09211,-0.40722 0.01454,-0.96473 0.22785,-1.17318 0.765964,-2.99597 0.761117,-3.059 -0.0048,-0.0339 0.101805,-0.34905 -0.353896,-0.51872 -0.441155,-0.15998 -0.601135,0.10665 -0.639918,0.10665 -0.03878,0 -0.06787,0.097 -0.06787,0.097 0,0 0.489635,-2.05549 -0.940002,-2.05549 -0.892008,0 -2.133063,0.97926 -2.742925,1.86642 -0.382981,0.20846 -1.2119671,0.65932 -2.0845837,1.13925 -0.334503,0.18422 -0.6787017,0.37329 -1.003509,0.55266 -0.024239,-0.0242 -0.043631,-0.0485 -0.06787,-0.0727 -1.7350527,-1.85188 -4.938525,-3.16081 -4.8027846,-5.64777 0.048479,-0.9065498 0.3635902,-3.2868498 6.1601881,-6.1761798 4.7509122,-2.36576 8.5492182,-1.71615 9.2031962,-0.27149 0.940486,2.06035 -2.030773,5.89501 -6.96445,6.4476698 -1.8804886,0.20846 -2.8689693,-0.5187198 -3.1162107,-0.7901998 -0.2569371,-0.28602 -0.29572,-0.30057 -0.3926774,-0.24724 -0.1599797,0.0873 -0.058175,0.33935 0,0.48963 0.1454361,0.38299 0.7514198,1.0616898 1.7835313,1.4010398 0.9065518,0.29571 3.1113628,0.46055 5.7772068,-0.57206 2.995014,-1.1537798 5.326354,-4.3679198 4.642804,-7.0584898 -0.696154,-2.73419 -5.229882,-3.63105 -9.516852,-2.10883 -2.5543432,0.90655 -5.3166595,2.33183 -7.3038013,4.18856 -2.36042773,2.21063 -2.73807678,4.13524 -2.58294495,4.9399798 0.55217235,2.8554 4.48767295,4.71698 6.06274585,6.09378 -0.077566,0.0436 -0.1502839,0.0824 -0.2181541,0.1212 -0.789718,0.39267 -3.7900646,1.96338 -4.5409996,3.62135 -0.84837718,1.88097 0.1405883,3.22868 0.789718,3.4129 2.0259248,0.56236 4.1003282,-0.45085 5.2148535,-2.11366 1.1145253,-1.66282 0.9792697,-3.83467 0.4653955,-4.82364 -0.00485,-0.0145 -0.014543,-0.0242 -0.019391,-0.0388 0.2036105,-0.1212 0.4120689,-0.24239 0.6205273,-0.3636 0.4018884,-0.23754 0.7945659,-0.45569 1.1387648,-0.64475 -0.1939149,0.52356 -0.3345031,1.15378 -0.4072212,2.06518 -0.087262,1.06653 0.3538945,2.44818 0.9259432,2.99114 0.252089,0.23755 0.55702,0.24239 0.746087,0.24239 0.669006,0 0.969574,-0.55266 1.303592,-1.21196 0.412069,-0.80475 0.77566,-1.74039 0.77566,-1.74039 0,0 -0.4557,2.53059 0.790202,2.53059 0.455216,0 0.910915,-0.58659 1.115011,-0.88717 v 0.005 c 0,0 0.0097,-0.0194 0.03393,-0.0582 0.04848,-0.0727 0.07272,-0.11635 0.07272,-0.11635 v -0.0145 c 0.184219,-0.31511 0.586592,-1.03744 1.192091,-2.23002 0.785355,-1.54162 1.53629,-3.46623 1.53629,-3.46623 a 9.7558529,9.7558529 0 0 0 0.300567,1.25075 c 0.135741,0.46055 0.421765,0.96473 0.649615,1.45437 -0.184219,0.25208 -0.29572,0.39752 -0.29572,0.39752 a 0.0150284,0.0150284 0 0 0 0.0048,0.01 c -0.145436,0.19392 -0.310264,0.40238 -0.479939,0.60599 -0.620043,0.73688 -1.357404,1.58041 -1.454361,1.8228 -0.116349,0.28602 -0.08726,0.49933 0.13574,0.66416 0.164828,0.12604 0.4557,0.14543 0.760631,0.12119 0.557505,-0.0388 0.950182,-0.17452 1.13925,-0.26178 a 3.984949,3.984949 0 0 0 0.978785,-0.51388 c 0.605983,-0.446 0.974421,-1.08592 0.940486,-1.92945 -0.01939,-0.4654 -0.169675,-0.93079 -0.353894,-1.3671 0.05333,-0.0776 0.111501,-0.15998 0.164828,-0.24239 0.959393,-1.40104 1.701117,-2.93878 1.701117,-2.93878 a 9.7558529,9.7558529 0 0 0 0.300568,1.25075 c 0.116348,0.39268 0.343714,0.82414 0.552172,1.2459 -0.901219,0.73203 -1.458724,1.58041 -1.652639,2.13792 -0.358742,1.03259 -0.07756,1.49799 0.450852,1.60464 0.237546,0.0485 0.576897,-0.063 0.828986,-0.16967 a 3.8521173,3.8521173 0 0 0 1.046655,-0.53812 c 0.605984,-0.44601 1.192091,-1.07138 1.153308,-1.91975 -0.01454,-0.38299 -0.121196,-0.76597 -0.261785,-1.13441 0.761115,-0.31996 1.749596,-0.49448 3.010042,-0.34904 2.699295,0.3151 3.227712,2.00216 3.125907,2.70511 -0.101805,0.70294 -0.669006,1.09561 -0.858074,1.21197 -0.189066,0.11635 -0.247241,0.15998 -0.232696,0.24724 0.02424,0.12604 0.1115,0.12119 0.27148,0.0921 0.223002,-0.0388 1.415093,-0.57206 1.46842,-1.87613 0.07756,-1.64827 -1.507204,-3.46138 -4.314604,-3.44683 z m -20.8060873,7.01486 c -0.8915232,0.97442 -2.1422737,1.34286 -2.6799024,1.03259 -0.5768966,-0.33546 -0.3490466,-1.76947 0.750935,-2.80788 0.669006,-0.63022 1.5314421,-1.21197 2.1034907,-1.57071 0.1308924,-0.0776 0.3199594,-0.19391 0.5526571,-0.3345 0.038784,-0.0242 0.058175,-0.0339 0.058175,-0.0339 0.043631,-0.0291 0.092109,-0.0533 0.1405882,-0.0824 0.4018884,1.47376 0.014544,2.77299 -0.9259431,3.79589 z m 6.5135973,-4.43095 c -0.310264,0.76112 -0.964242,2.70026 -1.361766,2.59846 -0.339351,-0.0873 -0.54781,-1.56586 -0.06787,-3.02023 0.242393,-0.73203 0.756267,-1.60464 1.061683,-1.94399 0.489149,-0.54781 1.027264,-0.72233 1.153308,-0.50418 0.169675,0.28603 -0.59144,2.39485 -0.785355,2.86994 z m 5.381136,2.56937 c -0.130893,0.0679 -0.252089,0.1115 -0.310264,0.0776 -0.04363,-0.0242 0.05333,-0.11635 0.05333,-0.11635 0,0 0.673854,-0.72234 0.940486,-1.052 0.155132,-0.19391 0.334503,-0.42176 0.527933,-0.67384 0,0.0242 0.0048,0.0485 0.0048,0.0776 -0.0063,0.86777 -0.839651,1.45436 -1.217784,1.68706 z m 4.148807,-0.94533 c -0.09696,-0.0679 -0.08241,-0.29573 0.242393,-1.00352 0.126045,-0.27632 0.416432,-0.74171 0.921095,-1.18772 a 1.7539593,1.7539593 0 0 1 0.09211,0.52357 c -0.0048,1.09077 -0.785355,1.49798 -1.255113,1.66767 z" />
</svg>
