<?xml version="1.0" encoding="UTF-8" standalone="no"?>
<svg
   xmlns:dc="http://purl.org/dc/elements/1.1/"
   xmlns:cc="http://creativecommons.org/ns#"
   xmlns:rdf="http://www.w3.org/1999/02/22-rdf-syntax-ns#"
   xmlns:svg="http://www.w3.org/2000/svg"
   xmlns="http://www.w3.org/2000/svg"
   version="1.1"
   id="svg2"
   width="32"
   height="32.111954"
   viewBox="0 0 32 32.111954">
  <metadata
     id="metadata8">
    <rdf:RDF>
      <cc:Work
         rdf:about="">
        <dc:format>image/svg+xml</dc:format>
        <dc:type
           rdf:resource="http://purl.org/dc/dcmitype/StillImage" />
        <dc:title></dc:title>
      </cc:Work>
    </rdf:RDF>
  </metadata>
  <defs
     id="defs6" />
  <path
     style="fill:#bf3d4a;fill-opacity:1;stroke:#1ceaea;stroke-width:0.97308224;stroke-opacity:1"
     d="M 1.9723634,30.062054 C 0.70960856,28.7993 0.46252245,26.695729 0.68650467,19.114879 L 0.96376411,9.7308225 H 16.046539 31.129313 l 0.277259,9.3840565 c 0.375512,12.709487 0.620081,12.510294 -15.360033,12.510294 -10.1916584,0 -12.8008408,-0.289783 -14.0741756,-1.563119 z M 20.425408,25.786679 c 0.38083,-0.616194 -2.117383,-0.973082 -6.811574,-0.973082 -4.6941937,0 -7.1924059,0.356888 -6.8115765,0.973082 0.3307688,0.535195 3.3959775,0.973082 6.8115765,0.973082 3.415597,0 6.480805,-0.437887 6.811574,-0.973082 z m 4.865411,0 c 0.33077,-0.535195 -0.107117,-0.973082 -0.973082,-0.973082 -0.865964,0 -1.303851,0.437887 -0.973082,0.973082 0.330769,0.535195 0.768656,0.973082 0.973082,0.973082 0.204426,0 0.642313,-0.437887 0.973082,-0.973082 z m 0.486542,-3.892329 c 0,-0.583849 -3.892329,-0.973082 -9.730822,-0.973082 -5.838494,0 -9.7308226,0.389233 -9.7308226,0.973082 0,0.58385 3.8923286,0.973083 9.7308226,0.973083 5.838493,0 9.730822,-0.389233 9.730822,-0.973083 z m -0.486542,-3.892329 c -0.330769,-0.535195 -4.490695,-0.973082 -9.24428,-0.973082 -4.753586,0 -8.9135127,0.437887 -9.2442815,0.973082 -0.3857964,0.624232 2.9282846,0.973083 9.2442815,0.973083 6.315996,0 9.630076,-0.348851 9.24428,-0.973083 z m -6.568305,-3.61622 c -1.471785,-0.222958 -3.880164,-0.222958 -5.351951,0 -1.471787,0.222956 -0.267597,0.405376 2.675976,0.405376 2.943573,0 4.147762,-0.18242 2.675975,-0.405376 z M 1.1502846,7.6468174 C -0.01819398,6.4783388 0.41890823,3.6031143 2.0063523,2.0156703 3.2378933,0.78412922 5.9702932,0.48654112 16.046539,0.48654112 c 13.496646,0 16.002391,0.85219928 15.377829,5.22997188 C 31.140414,7.7068467 30.578016,7.7947262 16.47633,8.0522683 8.4171886,8.1994541 1.5204684,8.0170012 1.1502846,7.6468174 Z M 6.3157164,4.3788699 c 0,-0.5351952 -0.437887,-0.9730822 -0.9730822,-0.9730822 -0.5351953,0 -0.9730823,0.437887 -0.9730823,0.9730822 0,0.5351953 0.437887,0.9730823 0.9730823,0.9730823 0.5351952,0 0.9730822,-0.437887 0.9730822,-0.9730823 z m 3.8923286,0 c 0,-0.5351952 -0.437887,-0.9730822 -0.973082,-0.9730822 -0.5351952,0 -0.9730822,0.437887 -0.9730822,0.9730822 0,0.5351953 0.437887,0.9730823 0.9730822,0.9730823 0.535195,0 0.973082,-0.437887 0.973082,-0.9730823 z m 17.51548,0 c 0,-0.5351952 -1.970492,-0.9730822 -4.37887,-0.9730822 -2.408379,0 -4.37887,0.437887 -4.37887,0.9730822 0,0.5351953 1.970491,0.9730823 4.37887,0.9730823 2.408378,0 4.37887,-0.437887 4.37887,-0.9730823 z"
     id="path821" />
</svg>
